<mxfile host="Electron" agent="Mozilla/5.0 (X11; Linux x86_64) AppleWebKit/537.36 (KHTML, like Gecko) draw.io/26.0.16 Chrome/132.0.6834.196 Electron/34.2.0 Safari/537.36" version="26.0.16" pages="6">
  <diagram name="High Level" id="-nhTlG4-kG9t7Pnq7_Eq">
    <mxGraphModel dx="4040" dy="1161" grid="1" gridSize="12" guides="1" tooltips="1" connect="1" arrows="1" fold="1" page="1" pageScale="1" pageWidth="1100" pageHeight="850" math="0" shadow="1">
      <root>
        <mxCell id="0" />
        <mxCell id="1" parent="0" />
        <mxCell id="aLAclq6h4Bst3J8l48EX-6" value="Game Dev." style="shape=umlActor;verticalLabelPosition=bottom;verticalAlign=top;html=1;outlineConnect=0;sketch=1;hachureGap=4;jiggle=2;curveFitting=1;fontFamily=Architects Daughter;fontSource=https%3A%2F%2Ffonts.googleapis.com%2Fcss%3Ffamily%3DArchitects%2BDaughter;shadow=1;fontStyle=1;fontSize=24;" parent="1" vertex="1">
          <mxGeometry x="-756" y="461" width="60" height="120" as="geometry" />
        </mxCell>
        <mxCell id="aLAclq6h4Bst3J8l48EX-14" style="edgeStyle=orthogonalEdgeStyle;rounded=0;sketch=1;hachureGap=4;jiggle=2;curveFitting=1;orthogonalLoop=1;jettySize=auto;html=1;entryX=0;entryY=0.5;entryDx=0;entryDy=0;fontFamily=Architects Daughter;fontSource=https%3A%2F%2Ffonts.googleapis.com%2Fcss%3Ffamily%3DArchitects%2BDaughter;" parent="1" source="aLAclq6h4Bst3J8l48EX-7" target="aLAclq6h4Bst3J8l48EX-13" edge="1">
          <mxGeometry relative="1" as="geometry" />
        </mxCell>
        <mxCell id="aLAclq6h4Bst3J8l48EX-20" value="&lt;b&gt;&lt;font&gt;Completion&lt;/font&gt;&lt;/b&gt;" style="edgeLabel;html=1;align=center;verticalAlign=middle;resizable=0;points=[];sketch=1;hachureGap=4;jiggle=2;curveFitting=1;fontFamily=Architects Daughter;fontSource=https%3A%2F%2Ffonts.googleapis.com%2Fcss%3Ffamily%3DArchitects%2BDaughter;fontSize=24;" parent="aLAclq6h4Bst3J8l48EX-14" vertex="1" connectable="0">
          <mxGeometry x="0.1371" y="-2" relative="1" as="geometry">
            <mxPoint x="-10" y="-26" as="offset" />
          </mxGeometry>
        </mxCell>
        <mxCell id="aLAclq6h4Bst3J8l48EX-7" value="Alphecca&lt;div&gt;Archive ZIP File&lt;/div&gt;" style="shape=parallelogram;perimeter=parallelogramPerimeter;whiteSpace=wrap;html=1;fixedSize=1;sketch=1;hachureGap=4;jiggle=2;curveFitting=1;fontFamily=Architects Daughter;fontSource=https%3A%2F%2Ffonts.googleapis.com%2Fcss%3Ffamily%3DArchitects%2BDaughter;rounded=1;fontSize=24;fontStyle=1;fillColor=#a0522d;fontColor=#ffffff;strokeColor=#6D1F00;" parent="1" vertex="1">
          <mxGeometry x="144" y="461" width="312" height="120" as="geometry" />
        </mxCell>
        <mxCell id="aLAclq6h4Bst3J8l48EX-8" value="Make Script" style="rounded=1;whiteSpace=wrap;html=1;sketch=1;hachureGap=4;jiggle=2;curveFitting=1;fontFamily=Architects Daughter;fontSource=https%3A%2F%2Ffonts.googleapis.com%2Fcss%3Ffamily%3DArchitects%2BDaughter;fontSize=24;fontStyle=1;fillColor=#647687;strokeColor=#314354;fontColor=#ffffff;" parent="1" vertex="1">
          <mxGeometry x="-456" y="461" width="300" height="120" as="geometry" />
        </mxCell>
        <mxCell id="aLAclq6h4Bst3J8l48EX-9" style="edgeStyle=orthogonalEdgeStyle;rounded=0;sketch=1;hachureGap=4;jiggle=2;curveFitting=1;orthogonalLoop=1;jettySize=auto;html=1;entryX=0.04;entryY=0.5;entryDx=0;entryDy=0;entryPerimeter=0;fontFamily=Architects Daughter;fontSource=https%3A%2F%2Ffonts.googleapis.com%2Fcss%3Ffamily%3DArchitects%2BDaughter;" parent="1" source="aLAclq6h4Bst3J8l48EX-6" target="aLAclq6h4Bst3J8l48EX-8" edge="1">
          <mxGeometry relative="1" as="geometry" />
        </mxCell>
        <mxCell id="aLAclq6h4Bst3J8l48EX-18" value="&lt;b&gt;&lt;font&gt;Launches Script&lt;/font&gt;&lt;/b&gt;" style="edgeLabel;html=1;align=center;verticalAlign=middle;resizable=0;points=[];sketch=1;hachureGap=4;jiggle=2;curveFitting=1;fontFamily=Architects Daughter;fontSource=https%3A%2F%2Ffonts.googleapis.com%2Fcss%3Ffamily%3DArchitects%2BDaughter;fontSize=24;" parent="aLAclq6h4Bst3J8l48EX-9" vertex="1" connectable="0">
          <mxGeometry x="-0.0321" y="-5" relative="1" as="geometry">
            <mxPoint y="-29" as="offset" />
          </mxGeometry>
        </mxCell>
        <mxCell id="aLAclq6h4Bst3J8l48EX-10" style="edgeStyle=orthogonalEdgeStyle;rounded=0;sketch=1;hachureGap=4;jiggle=2;curveFitting=1;orthogonalLoop=1;jettySize=auto;html=1;entryX=0.077;entryY=0.5;entryDx=0;entryDy=0;entryPerimeter=0;fontFamily=Architects Daughter;fontSource=https%3A%2F%2Ffonts.googleapis.com%2Fcss%3Ffamily%3DArchitects%2BDaughter;" parent="1" source="aLAclq6h4Bst3J8l48EX-8" target="aLAclq6h4Bst3J8l48EX-7" edge="1">
          <mxGeometry relative="1" as="geometry" />
        </mxCell>
        <mxCell id="aLAclq6h4Bst3J8l48EX-19" value="&lt;b&gt;&lt;font&gt;Produces Output File&lt;/font&gt;&lt;/b&gt;" style="edgeLabel;html=1;align=center;verticalAlign=middle;resizable=0;points=[];sketch=1;hachureGap=4;jiggle=2;curveFitting=1;fontFamily=Architects Daughter;fontSource=https%3A%2F%2Ffonts.googleapis.com%2Fcss%3Ffamily%3DArchitects%2BDaughter;fontSize=24;" parent="aLAclq6h4Bst3J8l48EX-10" vertex="1" connectable="0">
          <mxGeometry x="-0.0054" y="4" relative="1" as="geometry">
            <mxPoint x="7" y="-20" as="offset" />
          </mxGeometry>
        </mxCell>
        <mxCell id="aLAclq6h4Bst3J8l48EX-13" value="&lt;b&gt;&lt;font&gt;Finished&lt;/font&gt;&lt;/b&gt;" style="ellipse;whiteSpace=wrap;html=1;sketch=1;hachureGap=4;jiggle=2;curveFitting=1;fontFamily=Architects Daughter;fontSource=https%3A%2F%2Ffonts.googleapis.com%2Fcss%3Ffamily%3DArchitects%2BDaughter;fontSize=24;fillColor=#60a917;fontColor=#ffffff;strokeColor=#2D7600;" parent="1" vertex="1">
          <mxGeometry x="648" y="481" width="120" height="80" as="geometry" />
        </mxCell>
        <mxCell id="aLAclq6h4Bst3J8l48EX-22" value="&lt;b&gt;&lt;font style=&quot;font-size: 24px;&quot;&gt;When I launch the Make script just build it, don&#39;t prompt me.&lt;/font&gt;&lt;/b&gt;" style="shape=callout;whiteSpace=wrap;html=1;perimeter=calloutPerimeter;sketch=1;hachureGap=4;jiggle=2;curveFitting=1;fontFamily=Architects Daughter;fontSource=https%3A%2F%2Ffonts.googleapis.com%2Fcss%3Ffamily%3DArchitects%2BDaughter;fillColor=#0050ef;fontColor=#ffffff;strokeColor=#001DBC;" parent="1" vertex="1">
          <mxGeometry x="-888" y="269" width="372" height="176" as="geometry" />
        </mxCell>
      </root>
    </mxGraphModel>
  </diagram>
  <diagram id="RAIP8WqbPKQwYbwJJpqj" name="Flow Chart">
    <mxGraphModel dx="3300" dy="2068" grid="1" gridSize="12" guides="1" tooltips="1" connect="1" arrows="1" fold="1" page="1" pageScale="1" pageWidth="850" pageHeight="1100" math="0" shadow="1">
      <root>
        <mxCell id="0" />
        <mxCell id="1" parent="0" />
        <mxCell id="uhfCs4SEMX8J-N3ipxAv-6" style="edgeStyle=orthogonalEdgeStyle;rounded=1;sketch=1;hachureGap=4;jiggle=2;curveFitting=1;orthogonalLoop=1;jettySize=auto;html=1;entryX=0.5;entryY=0;entryDx=0;entryDy=0;fontFamily=Architects Daughter;fontSource=https%3A%2F%2Ffonts.googleapis.com%2Fcss%3Ffamily%3DArchitects%2BDaughter;fontSize=24;" parent="1" source="uhfCs4SEMX8J-N3ipxAv-1" target="uhfCs4SEMX8J-N3ipxAv-5" edge="1">
          <mxGeometry relative="1" as="geometry" />
        </mxCell>
        <mxCell id="uhfCs4SEMX8J-N3ipxAv-16" value="Prepare the Environment" style="edgeLabel;html=1;align=center;verticalAlign=middle;resizable=0;points=[];rounded=1;sketch=1;hachureGap=4;jiggle=2;curveFitting=1;fontFamily=Architects Daughter;fontSource=https%3A%2F%2Ffonts.googleapis.com%2Fcss%3Ffamily%3DArchitects%2BDaughter;fontStyle=1;fontSize=24;" parent="uhfCs4SEMX8J-N3ipxAv-6" vertex="1" connectable="0">
          <mxGeometry x="0.08" y="-1" relative="1" as="geometry">
            <mxPoint as="offset" />
          </mxGeometry>
        </mxCell>
        <mxCell id="uhfCs4SEMX8J-N3ipxAv-1" value="Start" style="ellipse;whiteSpace=wrap;html=1;sketch=1;hachureGap=4;jiggle=2;curveFitting=1;fontFamily=Architects Daughter;fontSource=https%3A%2F%2Ffonts.googleapis.com%2Fcss%3Ffamily%3DArchitects%2BDaughter;fontStyle=1;fontSize=24;rounded=1;fillColor=#0050ef;strokeColor=#001DBC;fontColor=#ffffff;" parent="1" vertex="1">
          <mxGeometry x="614" y="-792" width="120" height="80" as="geometry" />
        </mxCell>
        <mxCell id="uhfCs4SEMX8J-N3ipxAv-3" value="User: Launches Script" style="edgeStyle=orthogonalEdgeStyle;rounded=1;sketch=1;hachureGap=4;jiggle=2;curveFitting=1;orthogonalLoop=1;jettySize=auto;html=1;entryX=0.5;entryY=0;entryDx=0;entryDy=0;fontFamily=Architects Daughter;fontSource=https%3A%2F%2Ffonts.googleapis.com%2Fcss%3Ffamily%3DArchitects%2BDaughter;fontSize=24;fontStyle=1" parent="1" source="uhfCs4SEMX8J-N3ipxAv-2" target="uhfCs4SEMX8J-N3ipxAv-1" edge="1">
          <mxGeometry x="-0.0854" y="24" relative="1" as="geometry">
            <mxPoint as="offset" />
          </mxGeometry>
        </mxCell>
        <mxCell id="uhfCs4SEMX8J-N3ipxAv-2" value="Game Dev." style="shape=umlActor;verticalLabelPosition=bottom;verticalAlign=top;html=1;outlineConnect=0;rounded=1;sketch=1;hachureGap=4;jiggle=2;curveFitting=1;fontFamily=Architects Daughter;fontSource=https%3A%2F%2Ffonts.googleapis.com%2Fcss%3Ffamily%3DArchitects%2BDaughter;fontSize=24;fontStyle=1" parent="1" vertex="1">
          <mxGeometry x="194" y="-924" width="72" height="144" as="geometry" />
        </mxCell>
        <mxCell id="uhfCs4SEMX8J-N3ipxAv-5" value="Initialize&lt;div&gt;Environment&lt;/div&gt;" style="rounded=1;whiteSpace=wrap;html=1;sketch=1;hachureGap=4;jiggle=2;curveFitting=1;fontFamily=Architects Daughter;fontSource=https%3A%2F%2Ffonts.googleapis.com%2Fcss%3Ffamily%3DArchitects%2BDaughter;fontSize=24;fillColor=#fff2cc;gradientColor=none;strokeColor=#d6b656;fontStyle=1" parent="1" vertex="1">
          <mxGeometry x="578" y="-612" width="192" height="96" as="geometry" />
        </mxCell>
        <mxCell id="uhfCs4SEMX8J-N3ipxAv-20" value="" style="edgeStyle=orthogonalEdgeStyle;rounded=1;sketch=1;hachureGap=4;jiggle=2;curveFitting=1;orthogonalLoop=1;jettySize=auto;html=1;fontFamily=Architects Daughter;fontSource=https%3A%2F%2Ffonts.googleapis.com%2Fcss%3Ffamily%3DArchitects%2BDaughter;fontSize=24;exitX=0.5;exitY=1;exitDx=0;exitDy=0;" parent="1" source="n_98dM26rzPeSA7YRddr-1" target="uhfCs4SEMX8J-N3ipxAv-19" edge="1">
          <mxGeometry relative="1" as="geometry">
            <mxPoint x="648" y="2424" as="sourcePoint" />
          </mxGeometry>
        </mxCell>
        <mxCell id="uhfCs4SEMX8J-N3ipxAv-21" value="&lt;b&gt;&lt;font&gt;Create Temporary Directory&lt;/font&gt;&lt;/b&gt;" style="edgeLabel;html=1;align=center;verticalAlign=middle;resizable=0;points=[];rounded=1;sketch=1;hachureGap=4;jiggle=2;curveFitting=1;fontFamily=Architects Daughter;fontSource=https%3A%2F%2Ffonts.googleapis.com%2Fcss%3Ffamily%3DArchitects%2BDaughter;fontSize=24;" parent="uhfCs4SEMX8J-N3ipxAv-20" vertex="1" connectable="0">
          <mxGeometry x="0.1294" y="1" relative="1" as="geometry">
            <mxPoint x="-1" y="-103" as="offset" />
          </mxGeometry>
        </mxCell>
        <mxCell id="n_98dM26rzPeSA7YRddr-2" value="Clean the Environment" style="edgeStyle=orthogonalEdgeStyle;rounded=1;sketch=1;hachureGap=4;jiggle=2;curveFitting=1;orthogonalLoop=1;jettySize=auto;html=1;entryX=0.5;entryY=0;entryDx=0;entryDy=0;fontFamily=Architects Daughter;fontSource=https%3A%2F%2Ffonts.googleapis.com%2Fcss%3Ffamily%3DArchitects%2BDaughter;fontStyle=1;fontSize=24;exitX=0.5;exitY=1;exitDx=0;exitDy=0;" parent="1" source="O8DZHJ-JFutvU1bhPZdp-3" target="n_98dM26rzPeSA7YRddr-1" edge="1">
          <mxGeometry relative="1" as="geometry">
            <mxPoint x="850" y="1692" as="sourcePoint" />
          </mxGeometry>
        </mxCell>
        <mxCell id="uhfCs4SEMX8J-N3ipxAv-10" value="&lt;font&gt;Found File:&lt;/font&gt;&lt;div&gt;&lt;font&gt;%PROJDIR%/.Make.Instruction&lt;/font&gt;&lt;/div&gt;" style="rhombus;whiteSpace=wrap;html=1;rounded=1;sketch=1;hachureGap=4;jiggle=2;curveFitting=1;fontFamily=Architects Daughter;fontSource=https%3A%2F%2Ffonts.googleapis.com%2Fcss%3Ffamily%3DArchitects%2BDaughter;fillColor=#a20025;fontColor=#ffffff;strokeColor=#6F0000;fontSize=24;fontStyle=1" parent="1" vertex="1">
          <mxGeometry x="488" y="-432" width="371" height="312" as="geometry" />
        </mxCell>
        <mxCell id="uhfCs4SEMX8J-N3ipxAv-11" style="edgeStyle=orthogonalEdgeStyle;rounded=1;sketch=1;hachureGap=4;jiggle=2;curveFitting=1;orthogonalLoop=1;jettySize=auto;html=1;entryX=0.5;entryY=0.034;entryDx=0;entryDy=0;entryPerimeter=0;fontFamily=Architects Daughter;fontSource=https%3A%2F%2Ffonts.googleapis.com%2Fcss%3Ffamily%3DArchitects%2BDaughter;fontSize=24;" parent="1" source="uhfCs4SEMX8J-N3ipxAv-5" target="uhfCs4SEMX8J-N3ipxAv-10" edge="1">
          <mxGeometry relative="1" as="geometry" />
        </mxCell>
        <mxCell id="uhfCs4SEMX8J-N3ipxAv-18" value="Validate Path" style="edgeLabel;html=1;align=center;verticalAlign=middle;resizable=0;points=[];rounded=1;sketch=1;hachureGap=4;jiggle=2;curveFitting=1;fontFamily=Architects Daughter;fontSource=https%3A%2F%2Ffonts.googleapis.com%2Fcss%3Ffamily%3DArchitects%2BDaughter;fontStyle=1;fontSize=24;" parent="uhfCs4SEMX8J-N3ipxAv-11" vertex="1" connectable="0">
          <mxGeometry x="0.03" y="-3" relative="1" as="geometry">
            <mxPoint as="offset" />
          </mxGeometry>
        </mxCell>
        <mxCell id="uhfCs4SEMX8J-N3ipxAv-12" value="Stop&lt;div&gt;1&lt;/div&gt;" style="ellipse;whiteSpace=wrap;html=1;rounded=1;sketch=1;hachureGap=4;jiggle=2;curveFitting=1;fontFamily=Architects Daughter;fontSource=https%3A%2F%2Ffonts.googleapis.com%2Fcss%3Ffamily%3DArchitects%2BDaughter;fontStyle=1;fontSize=24;fillColor=#e51400;fontColor=#ffffff;strokeColor=#B20000;" parent="1" vertex="1">
          <mxGeometry x="170" y="-316" width="120" height="80" as="geometry" />
        </mxCell>
        <mxCell id="uhfCs4SEMX8J-N3ipxAv-13" style="edgeStyle=orthogonalEdgeStyle;rounded=1;sketch=1;hachureGap=4;jiggle=2;curveFitting=1;orthogonalLoop=1;jettySize=auto;html=1;entryX=1.1;entryY=0.5;entryDx=0;entryDy=0;entryPerimeter=0;fontFamily=Architects Daughter;fontSource=https%3A%2F%2Ffonts.googleapis.com%2Fcss%3Ffamily%3DArchitects%2BDaughter;fontSize=24;" parent="1" source="uhfCs4SEMX8J-N3ipxAv-10" target="uhfCs4SEMX8J-N3ipxAv-12" edge="1">
          <mxGeometry relative="1" as="geometry" />
        </mxCell>
        <mxCell id="uhfCs4SEMX8J-N3ipxAv-15" value="&lt;font&gt;&lt;b&gt;Not Found&lt;/b&gt;&lt;/font&gt;" style="edgeLabel;html=1;align=center;verticalAlign=middle;resizable=0;points=[];rounded=1;sketch=1;hachureGap=4;jiggle=2;curveFitting=1;fontFamily=Architects Daughter;fontSource=https%3A%2F%2Ffonts.googleapis.com%2Fcss%3Ffamily%3DArchitects%2BDaughter;fontSize=24;" parent="uhfCs4SEMX8J-N3ipxAv-13" vertex="1" connectable="0">
          <mxGeometry x="-0.0042" y="-1" relative="1" as="geometry">
            <mxPoint y="-23" as="offset" />
          </mxGeometry>
        </mxCell>
        <mxCell id="uhfCs4SEMX8J-N3ipxAv-23" style="edgeStyle=orthogonalEdgeStyle;rounded=1;sketch=1;hachureGap=4;jiggle=2;curveFitting=1;orthogonalLoop=1;jettySize=auto;html=1;entryX=0.5;entryY=0;entryDx=0;entryDy=0;fontFamily=Architects Daughter;fontSource=https%3A%2F%2Ffonts.googleapis.com%2Fcss%3Ffamily%3DArchitects%2BDaughter;fontSize=24;" parent="1" source="uhfCs4SEMX8J-N3ipxAv-19" target="uhfCs4SEMX8J-N3ipxAv-22" edge="1">
          <mxGeometry relative="1" as="geometry" />
        </mxCell>
        <mxCell id="uhfCs4SEMX8J-N3ipxAv-29" value="Validate Directory Creation" style="edgeLabel;html=1;align=center;verticalAlign=middle;resizable=0;points=[];rounded=1;sketch=1;hachureGap=4;jiggle=2;curveFitting=1;fontFamily=Architects Daughter;fontSource=https%3A%2F%2Ffonts.googleapis.com%2Fcss%3Ffamily%3DArchitects%2BDaughter;fontStyle=1;fontSize=24;" parent="uhfCs4SEMX8J-N3ipxAv-23" vertex="1" connectable="0">
          <mxGeometry x="0.022" y="2" relative="1" as="geometry">
            <mxPoint as="offset" />
          </mxGeometry>
        </mxCell>
        <mxCell id="uhfCs4SEMX8J-N3ipxAv-19" value="&lt;span&gt;&lt;b&gt;Create Temporary Dir.&lt;/b&gt;&lt;/span&gt;&lt;div&gt;&lt;span&gt;&lt;b&gt;%PROJDIR%/.TMP-MAKE&lt;/b&gt;&lt;/span&gt;&lt;/div&gt;" style="whiteSpace=wrap;html=1;fontFamily=Architects Daughter;fillColor=#76608a;strokeColor=#432D57;fontColor=#ffffff;rounded=1;sketch=1;hachureGap=4;jiggle=2;curveFitting=1;fontSource=https%3A%2F%2Ffonts.googleapis.com%2Fcss%3Ffamily%3DArchitects%2BDaughter;fontSize=24;" parent="1" vertex="1">
          <mxGeometry x="510" y="2616" width="324" height="178" as="geometry" />
        </mxCell>
        <mxCell id="uhfCs4SEMX8J-N3ipxAv-26" style="edgeStyle=orthogonalEdgeStyle;rounded=1;sketch=1;hachureGap=4;jiggle=2;curveFitting=1;orthogonalLoop=1;jettySize=auto;html=1;entryX=1;entryY=0.5;entryDx=0;entryDy=0;fontFamily=Architects Daughter;fontSource=https%3A%2F%2Ffonts.googleapis.com%2Fcss%3Ffamily%3DArchitects%2BDaughter;fontSize=24;" parent="1" source="uhfCs4SEMX8J-N3ipxAv-22" target="uhfCs4SEMX8J-N3ipxAv-25" edge="1">
          <mxGeometry relative="1" as="geometry" />
        </mxCell>
        <mxCell id="uhfCs4SEMX8J-N3ipxAv-27" value="&lt;span&gt;&lt;b&gt;Not Created&lt;/b&gt;&lt;/span&gt;" style="edgeLabel;html=1;align=center;verticalAlign=middle;resizable=0;points=[];rounded=1;sketch=1;hachureGap=4;jiggle=2;curveFitting=1;fontFamily=Architects Daughter;fontSource=https%3A%2F%2Ffonts.googleapis.com%2Fcss%3Ffamily%3DArchitects%2BDaughter;fontSize=24;" parent="uhfCs4SEMX8J-N3ipxAv-26" vertex="1" connectable="0">
          <mxGeometry y="2" relative="1" as="geometry">
            <mxPoint y="-32" as="offset" />
          </mxGeometry>
        </mxCell>
        <mxCell id="uhfCs4SEMX8J-N3ipxAv-33" style="edgeStyle=orthogonalEdgeStyle;rounded=1;sketch=1;hachureGap=4;jiggle=2;curveFitting=1;orthogonalLoop=1;jettySize=auto;html=1;entryX=0.5;entryY=0;entryDx=0;entryDy=0;fontFamily=Architects Daughter;fontSource=https%3A%2F%2Ffonts.googleapis.com%2Fcss%3Ffamily%3DArchitects%2BDaughter;fontSize=24;" parent="1" source="uhfCs4SEMX8J-N3ipxAv-22" target="uhfCs4SEMX8J-N3ipxAv-32" edge="1">
          <mxGeometry relative="1" as="geometry" />
        </mxCell>
        <mxCell id="uhfCs4SEMX8J-N3ipxAv-35" value="&lt;span&gt;&lt;font&gt;Duplicate and Organize&lt;/font&gt;&lt;/span&gt;&lt;div&gt;&lt;span&gt;&lt;font&gt;Game Assets&lt;/font&gt;&lt;/span&gt;&lt;/div&gt;" style="edgeLabel;html=1;align=center;verticalAlign=middle;resizable=0;points=[];rounded=1;sketch=1;hachureGap=4;jiggle=2;curveFitting=1;fontFamily=Architects Daughter;fontSource=https%3A%2F%2Ffonts.googleapis.com%2Fcss%3Ffamily%3DArchitects%2BDaughter;fontStyle=1;labelBackgroundColor=default;fontSize=24;" parent="uhfCs4SEMX8J-N3ipxAv-33" vertex="1" connectable="0">
          <mxGeometry x="0.0229" y="-2" relative="1" as="geometry">
            <mxPoint as="offset" />
          </mxGeometry>
        </mxCell>
        <mxCell id="uhfCs4SEMX8J-N3ipxAv-22" value="Created the&lt;div&gt;Temporary Directory&lt;/div&gt;" style="rhombus;whiteSpace=wrap;html=1;rounded=1;sketch=1;hachureGap=4;jiggle=2;curveFitting=1;fontFamily=Architects Daughter;fontSource=https%3A%2F%2Ffonts.googleapis.com%2Fcss%3Ffamily%3DArchitects%2BDaughter;fontSize=24;fontStyle=1;fillColor=#6d8764;fontColor=#ffffff;strokeColor=#3A5431;" parent="1" vertex="1">
          <mxGeometry x="472" y="2976" width="400" height="276" as="geometry" />
        </mxCell>
        <mxCell id="uhfCs4SEMX8J-N3ipxAv-25" value="Stop&lt;div&gt;4&lt;/div&gt;" style="ellipse;whiteSpace=wrap;html=1;rounded=1;sketch=1;hachureGap=4;jiggle=2;curveFitting=1;fontFamily=Architects Daughter;fontSource=https%3A%2F%2Ffonts.googleapis.com%2Fcss%3Ffamily%3DArchitects%2BDaughter;fontStyle=1;fontSize=24;fillColor=#e51400;fontColor=#ffffff;strokeColor=#B20000;" parent="1" vertex="1">
          <mxGeometry x="168" y="3074" width="120" height="80" as="geometry" />
        </mxCell>
        <mxCell id="uhfCs4SEMX8J-N3ipxAv-32" value="&lt;b&gt;&lt;font&gt;Duplicate and Organize Game Assets&lt;/font&gt;&lt;/b&gt;&lt;div&gt;&lt;b&gt;&lt;font&gt;into ZDoom&#39;s ZIP Filesystem Structure&lt;/font&gt;&lt;/b&gt;&lt;/div&gt;&lt;div&gt;&lt;b&gt;&lt;font&gt;into Temporary Directory&lt;/font&gt;&lt;/b&gt;&lt;/div&gt;" style="shape=process;whiteSpace=wrap;html=1;backgroundOutline=1;rounded=1;sketch=1;hachureGap=4;jiggle=2;curveFitting=1;fontFamily=Architects Daughter;fontSource=https%3A%2F%2Ffonts.googleapis.com%2Fcss%3Ffamily%3DArchitects%2BDaughter;fillColor=#647687;fontColor=#ffffff;strokeColor=#314354;fontSize=24;" parent="1" vertex="1">
          <mxGeometry x="369" y="3480" width="606" height="216" as="geometry" />
        </mxCell>
        <mxCell id="uhfCs4SEMX8J-N3ipxAv-45" style="edgeStyle=orthogonalEdgeStyle;rounded=1;sketch=1;hachureGap=4;jiggle=2;curveFitting=1;orthogonalLoop=1;jettySize=auto;html=1;entryX=1;entryY=0.5;entryDx=0;entryDy=0;fontFamily=Architects Daughter;fontSource=https%3A%2F%2Ffonts.googleapis.com%2Fcss%3Ffamily%3DArchitects%2BDaughter;fontSize=24;exitX=0;exitY=0.5;exitDx=0;exitDy=0;" parent="1" source="E3x43adVUu6hxOkxUcbc-1" target="uhfCs4SEMX8J-N3ipxAv-44" edge="1">
          <mxGeometry relative="1" as="geometry">
            <mxPoint x="-984" y="4654" as="sourcePoint" />
          </mxGeometry>
        </mxCell>
        <mxCell id="uhfCs4SEMX8J-N3ipxAv-46" value="&lt;b&gt;&lt;font&gt;Terminate with Failure&lt;/font&gt;&lt;/b&gt;" style="edgeLabel;html=1;align=center;verticalAlign=middle;resizable=0;points=[];rounded=1;sketch=1;hachureGap=4;jiggle=2;curveFitting=1;fontFamily=Architects Daughter;fontSource=https%3A%2F%2Ffonts.googleapis.com%2Fcss%3Ffamily%3DArchitects%2BDaughter;fontSize=24;" parent="uhfCs4SEMX8J-N3ipxAv-45" vertex="1" connectable="0">
          <mxGeometry x="0.0103" y="4" relative="1" as="geometry">
            <mxPoint y="-34" as="offset" />
          </mxGeometry>
        </mxCell>
        <mxCell id="uhfCs4SEMX8J-N3ipxAv-48" style="edgeStyle=orthogonalEdgeStyle;rounded=1;sketch=1;hachureGap=4;jiggle=2;curveFitting=1;orthogonalLoop=1;jettySize=auto;html=1;entryX=0.5;entryY=0;entryDx=0;entryDy=0;fontFamily=Architects Daughter;fontSource=https%3A%2F%2Ffonts.googleapis.com%2Fcss%3Ffamily%3DArchitects%2BDaughter;fontSize=24;" parent="1" source="uhfCs4SEMX8J-N3ipxAv-36" target="uhfCs4SEMX8J-N3ipxAv-47" edge="1">
          <mxGeometry relative="1" as="geometry" />
        </mxCell>
        <mxCell id="uhfCs4SEMX8J-N3ipxAv-50" value="&lt;b&gt;&lt;font&gt;Compact Files&lt;/font&gt;&lt;/b&gt;" style="edgeLabel;html=1;align=center;verticalAlign=middle;resizable=0;points=[];rounded=1;sketch=1;hachureGap=4;jiggle=2;curveFitting=1;fontFamily=Architects Daughter;fontSource=https%3A%2F%2Ffonts.googleapis.com%2Fcss%3Ffamily%3DArchitects%2BDaughter;fontSize=24;" parent="uhfCs4SEMX8J-N3ipxAv-48" vertex="1" connectable="0">
          <mxGeometry x="0.0099" y="-2" relative="1" as="geometry">
            <mxPoint as="offset" />
          </mxGeometry>
        </mxCell>
        <mxCell id="E3x43adVUu6hxOkxUcbc-4" value="&lt;b&gt;&lt;font style=&quot;font-size: 24px;&quot;&gt;Operation Failed&lt;/font&gt;&lt;/b&gt;" style="edgeStyle=orthogonalEdgeStyle;rounded=1;sketch=1;hachureGap=4;jiggle=2;curveFitting=1;orthogonalLoop=1;jettySize=auto;html=1;entryX=1;entryY=0.5;entryDx=0;entryDy=0;fontFamily=Architects Daughter;fontSource=https%3A%2F%2Ffonts.googleapis.com%2Fcss%3Ffamily%3DArchitects%2BDaughter;" parent="1" source="uhfCs4SEMX8J-N3ipxAv-36" target="E3x43adVUu6hxOkxUcbc-1" edge="1">
          <mxGeometry x="0.0149" y="-30" relative="1" as="geometry">
            <mxPoint as="offset" />
          </mxGeometry>
        </mxCell>
        <mxCell id="uhfCs4SEMX8J-N3ipxAv-36" value="&lt;b&gt;&lt;font&gt;Duplication and Organization&lt;/font&gt;&lt;/b&gt;&lt;div&gt;&lt;b&gt;&lt;font&gt;was completed&lt;/font&gt;&lt;/b&gt;&lt;/div&gt;" style="rhombus;whiteSpace=wrap;html=1;rounded=1;sketch=1;hachureGap=4;jiggle=2;curveFitting=1;fontFamily=Architects Daughter;fontSource=https%3A%2F%2Ffonts.googleapis.com%2Fcss%3Ffamily%3DArchitects%2BDaughter;fillColor=#d5e8d4;gradientColor=none;strokeColor=#82b366;fontSize=24;" parent="1" vertex="1">
          <mxGeometry x="460" y="3900" width="424" height="324" as="geometry" />
        </mxCell>
        <UserObject label="Duplicate" link="data:page/id,qSSEfx54DdXp2Mcly2g3" id="uhfCs4SEMX8J-N3ipxAv-38">
          <mxCell style="verticalLabelPosition=bottom;verticalAlign=top;html=1;shape=offPageConnector;rounded=0;size=0.5;sketch=1;hachureGap=4;jiggle=2;curveFitting=1;fontFamily=Architects Daughter;fontSource=https%3A%2F%2Ffonts.googleapis.com%2Fcss%3Ffamily%3DArchitects%2BDaughter;fontSize=24;fontStyle=1;fillColor=#f8cecc;strokeColor=#b85450;gradientColor=none;" parent="1" vertex="1">
            <mxGeometry x="1308" y="3516" width="168" height="144" as="geometry" />
          </mxCell>
        </UserObject>
        <mxCell id="uhfCs4SEMX8J-N3ipxAv-39" value="" style="shape=link;html=1;rounded=1;sketch=1;hachureGap=4;jiggle=2;curveFitting=1;fontFamily=Architects Daughter;fontSource=https%3A%2F%2Ffonts.googleapis.com%2Fcss%3Ffamily%3DArchitects%2BDaughter;exitX=1;exitY=0.5;exitDx=0;exitDy=0;entryX=0;entryY=0.5;entryDx=0;entryDy=0;fontSize=24;" parent="1" source="uhfCs4SEMX8J-N3ipxAv-32" target="uhfCs4SEMX8J-N3ipxAv-38" edge="1">
          <mxGeometry width="100" relative="1" as="geometry">
            <mxPoint x="1056" y="3588" as="sourcePoint" />
            <mxPoint x="1156" y="3588" as="targetPoint" />
          </mxGeometry>
        </mxCell>
        <mxCell id="uhfCs4SEMX8J-N3ipxAv-41" value="&lt;b&gt;&lt;font&gt;Defined in&lt;/font&gt;&lt;/b&gt;&lt;div&gt;&lt;b&gt;&lt;font&gt;&#39;Flow Chart - Duplicate&#39;&lt;/font&gt;&lt;/b&gt;&lt;/div&gt;" style="edgeLabel;html=1;align=center;verticalAlign=middle;resizable=0;points=[];rounded=1;sketch=1;hachureGap=4;jiggle=2;curveFitting=1;fontFamily=Architects Daughter;fontSource=https%3A%2F%2Ffonts.googleapis.com%2Fcss%3Ffamily%3DArchitects%2BDaughter;fontSize=24;" parent="uhfCs4SEMX8J-N3ipxAv-39" vertex="1" connectable="0">
          <mxGeometry x="-0.0014" y="1" relative="1" as="geometry">
            <mxPoint y="-47" as="offset" />
          </mxGeometry>
        </mxCell>
        <mxCell id="uhfCs4SEMX8J-N3ipxAv-42" style="edgeStyle=orthogonalEdgeStyle;rounded=1;sketch=1;hachureGap=4;jiggle=2;curveFitting=1;orthogonalLoop=1;jettySize=auto;html=1;entryX=0.498;entryY=0.027;entryDx=0;entryDy=0;entryPerimeter=0;fontFamily=Architects Daughter;fontSource=https%3A%2F%2Ffonts.googleapis.com%2Fcss%3Ffamily%3DArchitects%2BDaughter;fontSize=24;" parent="1" source="uhfCs4SEMX8J-N3ipxAv-32" target="uhfCs4SEMX8J-N3ipxAv-36" edge="1">
          <mxGeometry relative="1" as="geometry" />
        </mxCell>
        <mxCell id="uhfCs4SEMX8J-N3ipxAv-43" value="&lt;b&gt;&lt;font&gt;Check Operation State&lt;/font&gt;&lt;/b&gt;" style="edgeLabel;html=1;align=center;verticalAlign=middle;resizable=0;points=[];rounded=1;sketch=1;hachureGap=4;jiggle=2;curveFitting=1;fontFamily=Architects Daughter;fontSource=https%3A%2F%2Ffonts.googleapis.com%2Fcss%3Ffamily%3DArchitects%2BDaughter;fontSize=24;" parent="uhfCs4SEMX8J-N3ipxAv-42" vertex="1" connectable="0">
          <mxGeometry x="-0.0045" relative="1" as="geometry">
            <mxPoint as="offset" />
          </mxGeometry>
        </mxCell>
        <mxCell id="uhfCs4SEMX8J-N3ipxAv-44" value="Stop&lt;div&gt;5&lt;/div&gt;" style="ellipse;whiteSpace=wrap;html=1;rounded=1;sketch=1;hachureGap=4;jiggle=2;curveFitting=1;fontFamily=Architects Daughter;fontSource=https%3A%2F%2Ffonts.googleapis.com%2Fcss%3Ffamily%3DArchitects%2BDaughter;fontStyle=1;fontSize=24;fillColor=#e51400;fontColor=#ffffff;strokeColor=#B20000;" parent="1" vertex="1">
          <mxGeometry x="-768" y="4022" width="120" height="80" as="geometry" />
        </mxCell>
        <mxCell id="uhfCs4SEMX8J-N3ipxAv-47" value="&lt;b&gt;&lt;font&gt;Compact the Game Assets from the Temporary Directory into a Zip File&lt;/font&gt;&lt;/b&gt;&lt;div&gt;&lt;b&gt;&lt;font&gt;&lt;br&gt;&lt;/font&gt;&lt;/b&gt;&lt;/div&gt;&lt;div&gt;&lt;span&gt;&lt;b&gt;&lt;i&gt;%PROJDIR%/Output/%PROJNAME%_%DATE%-%TIME%.PK3&lt;/i&gt;&lt;/b&gt;&lt;/span&gt;&lt;/div&gt;" style="rounded=1;whiteSpace=wrap;html=1;sketch=1;hachureGap=4;jiggle=2;curveFitting=1;fontFamily=Architects Daughter;fontSource=https%3A%2F%2Ffonts.googleapis.com%2Fcss%3Ffamily%3DArchitects%2BDaughter;fillColor=#1ba1e2;fontColor=#ffffff;strokeColor=#006EAF;fontSize=24;" parent="1" vertex="1">
          <mxGeometry x="360" y="4392" width="624" height="216" as="geometry" />
        </mxCell>
        <mxCell id="uhfCs4SEMX8J-N3ipxAv-54" value="&lt;b&gt;&lt;font&gt;Failed to Create ZIP File&lt;/font&gt;&lt;/b&gt;" style="edgeStyle=orthogonalEdgeStyle;rounded=1;sketch=1;hachureGap=4;jiggle=2;curveFitting=1;orthogonalLoop=1;jettySize=auto;html=1;entryX=1;entryY=0.5;entryDx=0;entryDy=0;fontFamily=Architects Daughter;fontSource=https%3A%2F%2Ffonts.googleapis.com%2Fcss%3Ffamily%3DArchitects%2BDaughter;fontSize=24;" parent="1" source="uhfCs4SEMX8J-N3ipxAv-51" target="E3x43adVUu6hxOkxUcbc-2" edge="1">
          <mxGeometry x="-0.0148" y="-18" relative="1" as="geometry">
            <mxPoint x="18" y="-18" as="offset" />
          </mxGeometry>
        </mxCell>
        <mxCell id="uhfCs4SEMX8J-N3ipxAv-56" value="&lt;b&gt;Finished&lt;/b&gt;" style="edgeStyle=orthogonalEdgeStyle;rounded=1;sketch=1;hachureGap=4;jiggle=2;curveFitting=1;orthogonalLoop=1;jettySize=auto;html=1;entryX=0.5;entryY=0;entryDx=0;entryDy=0;fontFamily=Architects Daughter;fontSource=https%3A%2F%2Ffonts.googleapis.com%2Fcss%3Ffamily%3DArchitects%2BDaughter;fontSize=24;exitX=0.497;exitY=0.985;exitDx=0;exitDy=0;exitPerimeter=0;" parent="1" source="n_98dM26rzPeSA7YRddr-12" target="uhfCs4SEMX8J-N3ipxAv-55" edge="1">
          <mxGeometry relative="1" as="geometry">
            <mxPoint x="672" y="6384" as="sourcePoint" />
          </mxGeometry>
        </mxCell>
        <mxCell id="n_98dM26rzPeSA7YRddr-13" value="Remove Temporary Directory" style="edgeStyle=orthogonalEdgeStyle;rounded=1;sketch=1;hachureGap=4;jiggle=2;curveFitting=1;orthogonalLoop=1;jettySize=auto;html=1;entryX=0.5;entryY=0;entryDx=0;entryDy=0;fontFamily=Architects Daughter;fontSource=https%3A%2F%2Ffonts.googleapis.com%2Fcss%3Ffamily%3DArchitects%2BDaughter;fontStyle=1;fontSize=24;" parent="1" source="uhfCs4SEMX8J-N3ipxAv-51" target="n_98dM26rzPeSA7YRddr-11" edge="1">
          <mxGeometry relative="1" as="geometry" />
        </mxCell>
        <mxCell id="uhfCs4SEMX8J-N3ipxAv-51" value="Created the ZIP&lt;div&gt;Archive File&lt;/div&gt;" style="rhombus;whiteSpace=wrap;html=1;rounded=1;sketch=1;hachureGap=4;jiggle=2;curveFitting=1;fontFamily=Architects Daughter;fontSource=https%3A%2F%2Ffonts.googleapis.com%2Fcss%3Ffamily%3DArchitects%2BDaughter;fontSize=24;fontStyle=1;fillColor=#6a00ff;fontColor=#ffffff;strokeColor=#3700CC;" parent="1" vertex="1">
          <mxGeometry x="474" y="4824" width="396" height="348" as="geometry" />
        </mxCell>
        <mxCell id="uhfCs4SEMX8J-N3ipxAv-52" value="&lt;b&gt;&lt;font&gt;Validate Archive File Created&lt;/font&gt;&lt;/b&gt;" style="edgeStyle=orthogonalEdgeStyle;rounded=1;sketch=1;hachureGap=4;jiggle=2;curveFitting=1;orthogonalLoop=1;jettySize=auto;html=1;entryX=0.501;entryY=0.024;entryDx=0;entryDy=0;entryPerimeter=0;fontFamily=Architects Daughter;fontSource=https%3A%2F%2Ffonts.googleapis.com%2Fcss%3Ffamily%3DArchitects%2BDaughter;fontSize=24;" parent="1" source="uhfCs4SEMX8J-N3ipxAv-47" target="uhfCs4SEMX8J-N3ipxAv-51" edge="1">
          <mxGeometry relative="1" as="geometry" />
        </mxCell>
        <mxCell id="uhfCs4SEMX8J-N3ipxAv-53" value="Stop&lt;div&gt;6&lt;/div&gt;" style="ellipse;whiteSpace=wrap;html=1;rounded=1;sketch=1;hachureGap=4;jiggle=2;curveFitting=1;fontFamily=Architects Daughter;fontSource=https%3A%2F%2Ffonts.googleapis.com%2Fcss%3Ffamily%3DArchitects%2BDaughter;fontStyle=1;fontSize=24;fillColor=#e51400;fontColor=#ffffff;strokeColor=#B20000;" parent="1" vertex="1">
          <mxGeometry x="-768" y="4958" width="120" height="80" as="geometry" />
        </mxCell>
        <mxCell id="uhfCs4SEMX8J-N3ipxAv-55" value="Done&lt;div&gt;0&lt;/div&gt;" style="ellipse;whiteSpace=wrap;html=1;rounded=1;sketch=1;hachureGap=4;jiggle=2;curveFitting=1;fontFamily=Architects Daughter;fontSource=https%3A%2F%2Ffonts.googleapis.com%2Fcss%3Ffamily%3DArchitects%2BDaughter;fontSize=24;fontStyle=1;fillColor=#60a917;strokeColor=#2D7600;fontColor=#ffffff;" parent="1" vertex="1">
          <mxGeometry x="612" y="6276" width="120" height="80" as="geometry" />
        </mxCell>
        <UserObject label="&lt;b&gt;ZDoom Wiki&lt;/b&gt;" link="https://zdoom.org/wiki/Using_ZIPs_as_WAD_replacement" linkTarget="_blank" id="7_X30gQ8Rm_TJm7eTgFW-1">
          <mxCell style="ellipse;shape=cloud;whiteSpace=wrap;html=1;rounded=1;sketch=1;hachureGap=4;jiggle=2;curveFitting=1;fontFamily=Architects Daughter;fontSource=https%3A%2F%2Ffonts.googleapis.com%2Fcss%3Ffamily%3DArchitects%2BDaughter;fontSize=24;fillColor=#dae8fc;strokeColor=#6c8ebf;gradientColor=none;" parent="1" vertex="1">
            <mxGeometry x="-48" y="3444" width="240" height="152" as="geometry" />
          </mxCell>
        </UserObject>
        <mxCell id="7_X30gQ8Rm_TJm7eTgFW-2" value="" style="endArrow=none;dashed=1;html=1;dashPattern=1 3;strokeWidth=2;rounded=1;sketch=1;hachureGap=4;jiggle=2;curveFitting=1;fontFamily=Architects Daughter;fontSource=https%3A%2F%2Ffonts.googleapis.com%2Fcss%3Ffamily%3DArchitects%2BDaughter;entryX=0;entryY=0.5;entryDx=0;entryDy=0;exitX=0.875;exitY=0.5;exitDx=0;exitDy=0;exitPerimeter=0;fontSize=24;" parent="1" source="7_X30gQ8Rm_TJm7eTgFW-1" target="uhfCs4SEMX8J-N3ipxAv-32" edge="1">
          <mxGeometry width="50" height="50" relative="1" as="geometry">
            <mxPoint x="180" y="3674" as="sourcePoint" />
            <mxPoint x="230" y="3624" as="targetPoint" />
          </mxGeometry>
        </mxCell>
        <mxCell id="7_X30gQ8Rm_TJm7eTgFW-4" value="&lt;b&gt;&lt;font style=&quot;font-size: 24px;&quot;&gt;NOTE&lt;/font&gt;&lt;/b&gt;" style="shape=flexArrow;endArrow=classic;startArrow=classic;html=1;rounded=1;sketch=1;hachureGap=4;jiggle=2;curveFitting=1;fontFamily=Architects Daughter;fontSource=https%3A%2F%2Ffonts.googleapis.com%2Fcss%3Ffamily%3DArchitects%2BDaughter;exitX=1;exitY=0.5;exitDx=0;exitDy=0;entryX=0;entryY=0.5;entryDx=0;entryDy=0;dashed=1;" parent="1" source="uhfCs4SEMX8J-N3ipxAv-5" target="_eGOUIHq85ly8DznU-0h-16" edge="1">
          <mxGeometry width="100" height="100" relative="1" as="geometry">
            <mxPoint x="938" y="-548" as="sourcePoint" />
            <mxPoint x="1044" y="-561" as="targetPoint" />
          </mxGeometry>
        </mxCell>
        <mxCell id="n_98dM26rzPeSA7YRddr-4" value="&lt;b&gt;&lt;font style=&quot;font-size: 24px;&quot;&gt;Found the Temporary Directory&lt;/font&gt;&lt;/b&gt;" style="edgeStyle=orthogonalEdgeStyle;rounded=1;sketch=1;hachureGap=4;jiggle=2;curveFitting=1;orthogonalLoop=1;jettySize=auto;html=1;entryX=1;entryY=0.5;entryDx=0;entryDy=0;fontFamily=Architects Daughter;fontSource=https%3A%2F%2Ffonts.googleapis.com%2Fcss%3Ffamily%3DArchitects%2BDaughter;" parent="1" source="n_98dM26rzPeSA7YRddr-1" target="n_98dM26rzPeSA7YRddr-3" edge="1">
          <mxGeometry x="0.0052" y="-30" relative="1" as="geometry">
            <mxPoint as="offset" />
          </mxGeometry>
        </mxCell>
        <mxCell id="n_98dM26rzPeSA7YRddr-1" value="&lt;div&gt;&lt;span style=&quot;&quot;&gt;&lt;font style=&quot;color: rgb(255, 255, 255);&quot;&gt;Directory Already Exists&lt;/font&gt;&lt;/span&gt;&lt;/div&gt;&lt;span style=&quot;&quot;&gt;&lt;font style=&quot;color: rgb(255, 255, 255);&quot;&gt;%PROJDIR%/.TMP-MAKE&lt;/font&gt;&lt;/span&gt;" style="rhombus;whiteSpace=wrap;html=1;rounded=1;sketch=1;hachureGap=4;jiggle=2;curveFitting=1;fontFamily=Architects Daughter;fontSource=https%3A%2F%2Ffonts.googleapis.com%2Fcss%3Ffamily%3DArchitects%2BDaughter;fontSize=24;fontStyle=1;fillColor=#fa6800;strokeColor=#C73500;fontColor=#000000;labelBackgroundColor=none;" parent="1" vertex="1">
          <mxGeometry x="494" y="1788" width="356" height="348" as="geometry" />
        </mxCell>
        <UserObject label="Validate Directory Deleted" id="n_98dM26rzPeSA7YRddr-6">
          <mxCell style="edgeStyle=orthogonalEdgeStyle;rounded=1;sketch=1;hachureGap=4;jiggle=2;curveFitting=1;orthogonalLoop=1;jettySize=auto;html=1;fontFamily=Architects Daughter;fontSource=https%3A%2F%2Ffonts.googleapis.com%2Fcss%3Ffamily%3DArchitects%2BDaughter;fontStyle=1;fontSize=24;" parent="1" source="n_98dM26rzPeSA7YRddr-3" target="n_98dM26rzPeSA7YRddr-5" edge="1">
            <mxGeometry relative="1" as="geometry" />
          </mxCell>
        </UserObject>
        <mxCell id="n_98dM26rzPeSA7YRddr-3" value="Delete the Directory, recursively&lt;div&gt;%PROJDIR%/.TMP-MAKE&lt;/div&gt;" style="rounded=1;whiteSpace=wrap;html=1;sketch=1;hachureGap=4;jiggle=2;curveFitting=1;fontFamily=Architects Daughter;fontSource=https%3A%2F%2Ffonts.googleapis.com%2Fcss%3Ffamily%3DArchitects%2BDaughter;fontStyle=1;fontSize=24;fillColor=#d5e8d4;strokeColor=#82b366;" parent="1" vertex="1">
          <mxGeometry x="-396" y="1848" width="444" height="228" as="geometry" />
        </mxCell>
        <mxCell id="n_98dM26rzPeSA7YRddr-8" value="Previous Temp. Not Deleted" style="edgeStyle=orthogonalEdgeStyle;rounded=1;sketch=1;hachureGap=4;jiggle=2;curveFitting=1;orthogonalLoop=1;jettySize=auto;html=1;entryX=1;entryY=0.5;entryDx=0;entryDy=0;fontFamily=Architects Daughter;fontSource=https%3A%2F%2Ffonts.googleapis.com%2Fcss%3Ffamily%3DArchitects%2BDaughter;fontSize=24;fontStyle=1" parent="1" source="n_98dM26rzPeSA7YRddr-5" target="n_98dM26rzPeSA7YRddr-7" edge="1">
          <mxGeometry y="-30" relative="1" as="geometry">
            <mxPoint as="offset" />
          </mxGeometry>
        </mxCell>
        <mxCell id="n_98dM26rzPeSA7YRddr-9" value="Create New Temporary Directory" style="edgeStyle=orthogonalEdgeStyle;rounded=1;sketch=1;hachureGap=4;jiggle=2;curveFitting=1;orthogonalLoop=1;jettySize=auto;html=1;entryX=0.5;entryY=0;entryDx=0;entryDy=0;fontFamily=Architects Daughter;fontSource=https%3A%2F%2Ffonts.googleapis.com%2Fcss%3Ffamily%3DArchitects%2BDaughter;fontStyle=1;fontSize=24;" parent="1" source="n_98dM26rzPeSA7YRddr-5" target="uhfCs4SEMX8J-N3ipxAv-19" edge="1">
          <mxGeometry x="-0.0815" y="18" relative="1" as="geometry">
            <mxPoint as="offset" />
          </mxGeometry>
        </mxCell>
        <mxCell id="n_98dM26rzPeSA7YRddr-5" value="Successfully Removed&lt;div&gt;the Temporary Directory&lt;/div&gt;" style="rhombus;whiteSpace=wrap;html=1;rounded=1;sketch=1;hachureGap=4;jiggle=2;curveFitting=1;fontFamily=Architects Daughter;fontSource=https%3A%2F%2Ffonts.googleapis.com%2Fcss%3Ffamily%3DArchitects%2BDaughter;fontStyle=1;fontSize=24;fillColor=#1ba1e2;fontColor=#ffffff;strokeColor=#006EAF;" parent="1" vertex="1">
          <mxGeometry x="-360" y="2280" width="372" height="372" as="geometry" />
        </mxCell>
        <mxCell id="n_98dM26rzPeSA7YRddr-7" value="Stop&lt;div&gt;3&lt;/div&gt;" style="ellipse;whiteSpace=wrap;html=1;rounded=1;sketch=1;hachureGap=4;jiggle=2;curveFitting=1;fontFamily=Architects Daughter;fontSource=https%3A%2F%2Ffonts.googleapis.com%2Fcss%3Ffamily%3DArchitects%2BDaughter;fontStyle=1;fontSize=24;fillColor=#e51400;fontColor=#ffffff;strokeColor=#B20000;" parent="1" vertex="1">
          <mxGeometry x="-840" y="2426" width="120" height="80" as="geometry" />
        </mxCell>
        <mxCell id="n_98dM26rzPeSA7YRddr-11" value="Delete the Directory, recursively&lt;div&gt;%PROJDIR%/.TMP-MAKE&lt;/div&gt;" style="rounded=1;whiteSpace=wrap;html=1;sketch=1;hachureGap=4;jiggle=2;curveFitting=1;fontFamily=Architects Daughter;fontSource=https%3A%2F%2Ffonts.googleapis.com%2Fcss%3Ffamily%3DArchitects%2BDaughter;fontStyle=1;fontSize=24;fillColor=#d80073;fontColor=#ffffff;strokeColor=#A50040;" parent="1" vertex="1">
          <mxGeometry x="450" y="5388" width="444" height="228" as="geometry" />
        </mxCell>
        <mxCell id="n_98dM26rzPeSA7YRddr-16" value="Failed to Delete Directory" style="edgeStyle=orthogonalEdgeStyle;rounded=1;sketch=1;hachureGap=4;jiggle=2;curveFitting=1;orthogonalLoop=1;jettySize=auto;html=1;entryX=1;entryY=0.5;entryDx=0;entryDy=0;fontFamily=Architects Daughter;fontSource=https%3A%2F%2Ffonts.googleapis.com%2Fcss%3Ffamily%3DArchitects%2BDaughter;fontStyle=1;fontSize=24;labelBackgroundColor=default;" parent="1" source="n_98dM26rzPeSA7YRddr-12" target="n_98dM26rzPeSA7YRddr-15" edge="1">
          <mxGeometry x="-0.0256" y="-30" relative="1" as="geometry">
            <mxPoint as="offset" />
          </mxGeometry>
        </mxCell>
        <mxCell id="n_98dM26rzPeSA7YRddr-12" value="&lt;font&gt;Successfully Removed&lt;/font&gt;&lt;div&gt;&lt;font&gt;the Temporary Directory&lt;/font&gt;&lt;/div&gt;" style="rhombus;whiteSpace=wrap;html=1;rounded=1;sketch=1;hachureGap=4;jiggle=2;curveFitting=1;fontFamily=Architects Daughter;fontSource=https%3A%2F%2Ffonts.googleapis.com%2Fcss%3Ffamily%3DArchitects%2BDaughter;fontStyle=1;fontSize=24;fillColor=#76608a;fontColor=#ffffff;strokeColor=#432D57;" parent="1" vertex="1">
          <mxGeometry x="486" y="5784" width="372" height="372" as="geometry" />
        </mxCell>
        <mxCell id="n_98dM26rzPeSA7YRddr-14" value="Validate Directory Removal" style="edgeStyle=orthogonalEdgeStyle;rounded=1;sketch=1;hachureGap=4;jiggle=2;curveFitting=1;orthogonalLoop=1;jettySize=auto;html=1;entryX=0.497;entryY=0.02;entryDx=0;entryDy=0;entryPerimeter=0;fontFamily=Architects Daughter;fontSource=https%3A%2F%2Ffonts.googleapis.com%2Fcss%3Ffamily%3DArchitects%2BDaughter;fontStyle=1;fontSize=24;" parent="1" source="n_98dM26rzPeSA7YRddr-11" target="n_98dM26rzPeSA7YRddr-12" edge="1">
          <mxGeometry relative="1" as="geometry" />
        </mxCell>
        <mxCell id="n_98dM26rzPeSA7YRddr-15" value="Stop&lt;div&gt;7&lt;/div&gt;" style="ellipse;whiteSpace=wrap;html=1;rounded=1;sketch=1;hachureGap=4;jiggle=2;curveFitting=1;fontFamily=Architects Daughter;fontSource=https%3A%2F%2Ffonts.googleapis.com%2Fcss%3Ffamily%3DArchitects%2BDaughter;fontStyle=1;fontSize=24;fillColor=#e51400;fontColor=#ffffff;strokeColor=#B20000;" parent="1" vertex="1">
          <mxGeometry x="12" y="5930" width="120" height="80" as="geometry" />
        </mxCell>
        <mxCell id="E3x43adVUu6hxOkxUcbc-1" value="Delete the Directory, recursively&lt;div&gt;%PROJDIR%/.TMP-MAKE&lt;/div&gt;" style="rounded=1;whiteSpace=wrap;html=1;sketch=1;hachureGap=4;jiggle=2;curveFitting=1;fontFamily=Architects Daughter;fontSource=https%3A%2F%2Ffonts.googleapis.com%2Fcss%3Ffamily%3DArchitects%2BDaughter;fontStyle=1;fontSize=24;fillColor=#e51400;strokeColor=#B20000;fontColor=#ffffff;" parent="1" vertex="1">
          <mxGeometry x="-252" y="3948" width="444" height="228" as="geometry" />
        </mxCell>
        <mxCell id="E3x43adVUu6hxOkxUcbc-7" value="&lt;b&gt;&lt;font style=&quot;font-size: 24px;&quot;&gt;Terminate with Failure&lt;/font&gt;&lt;/b&gt;" style="edgeStyle=orthogonalEdgeStyle;rounded=1;sketch=1;hachureGap=4;jiggle=2;curveFitting=1;orthogonalLoop=1;jettySize=auto;html=1;entryX=1;entryY=0.5;entryDx=0;entryDy=0;fontFamily=Architects Daughter;fontSource=https%3A%2F%2Ffonts.googleapis.com%2Fcss%3Ffamily%3DArchitects%2BDaughter;" parent="1" source="E3x43adVUu6hxOkxUcbc-2" target="uhfCs4SEMX8J-N3ipxAv-53" edge="1">
          <mxGeometry x="0.0059" y="-18" relative="1" as="geometry">
            <mxPoint as="offset" />
          </mxGeometry>
        </mxCell>
        <mxCell id="E3x43adVUu6hxOkxUcbc-2" value="Delete the Directory, recursively&lt;div&gt;%PROJDIR%/.TMP-MAKE&lt;/div&gt;" style="rounded=1;whiteSpace=wrap;html=1;sketch=1;hachureGap=4;jiggle=2;curveFitting=1;fontFamily=Architects Daughter;fontSource=https%3A%2F%2Ffonts.googleapis.com%2Fcss%3Ffamily%3DArchitects%2BDaughter;fontStyle=1;fontSize=24;fillColor=#e51400;strokeColor=#B20000;fontColor=#ffffff;" parent="1" vertex="1">
          <mxGeometry x="-310" y="4884" width="444" height="228" as="geometry" />
        </mxCell>
        <mxCell id="heXqW_urml8xHIXBPeoO-1" value="This flowchart will illustrate how the Make script will compile the Alphecca project&#39;s game asset files into a ZIP (PK3) archive data file.&lt;div&gt;&lt;br&gt;&lt;/div&gt;&lt;div style=&quot;&quot;&gt;Requires the .Make.Instruction file to be in the same location as the Make script.&lt;/div&gt;&lt;div style=&quot;&quot;&gt;&lt;br&gt;&lt;/div&gt;&lt;div style=&quot;&quot;&gt;&lt;u&gt;Step:&lt;/u&gt;&lt;/div&gt;&lt;div style=&quot;&quot;&gt;&lt;ol&gt;&lt;li&gt;Create the .TMP_MAKE Directory&lt;/li&gt;&lt;li&gt;Duplicate files into .TMP_MAKE Directory&lt;/li&gt;&lt;li&gt;Generate ZIP File&lt;/li&gt;&lt;li&gt;Delete the .TMP_MAKE Directory&lt;/li&gt;&lt;/ol&gt;&lt;/div&gt;" style="strokeWidth=2;html=1;shape=mxgraph.flowchart.document2;whiteSpace=wrap;size=0.25;rounded=1;sketch=1;hachureGap=4;jiggle=2;curveFitting=1;fontFamily=Architects Daughter;fontSource=https%3A%2F%2Ffonts.googleapis.com%2Fcss%3Ffamily%3DArchitects%2BDaughter;fontStyle=1;fontSize=24;verticalAlign=top;align=left;" parent="1" vertex="1">
          <mxGeometry x="-840" y="-1092" width="804" height="420" as="geometry" />
        </mxCell>
        <mxCell id="30Ouu6AVxRELDfcjIOFS-2" value="Successfully Captured&lt;div&gt;Contents from File&lt;/div&gt;" style="edgeStyle=orthogonalEdgeStyle;rounded=0;sketch=1;hachureGap=4;jiggle=2;curveFitting=1;orthogonalLoop=1;jettySize=auto;html=1;entryX=0.5;entryY=0;entryDx=0;entryDy=0;fontFamily=Architects Daughter;fontSource=https%3A%2F%2Ffonts.googleapis.com%2Fcss%3Ffamily%3DArchitects%2BDaughter;fontStyle=1;fontSize=24;" edge="1" parent="1" source="O8DZHJ-JFutvU1bhPZdp-1" target="30Ouu6AVxRELDfcjIOFS-1">
          <mxGeometry relative="1" as="geometry" />
        </mxCell>
        <mxCell id="O8DZHJ-JFutvU1bhPZdp-1" value="Read in the&lt;div&gt;%PROJDIR%/.Make.Instruction&lt;/div&gt;&lt;div&gt;into Dictionary&lt;/div&gt;" style="rounded=1;whiteSpace=wrap;html=1;sketch=1;hachureGap=4;jiggle=2;curveFitting=1;fontFamily=Architects Daughter;fontSource=https%3A%2F%2Ffonts.googleapis.com%2Fcss%3Ffamily%3DArchitects%2BDaughter;fontStyle=1;fontSize=24;fillColor=#e6d0de;strokeColor=#996185;gradientColor=none;" parent="1" vertex="1">
          <mxGeometry x="498" y="-24" width="348" height="168" as="geometry" />
        </mxCell>
        <mxCell id="O8DZHJ-JFutvU1bhPZdp-2" value="Capture Instructions" style="edgeStyle=orthogonalEdgeStyle;rounded=1;sketch=1;hachureGap=4;jiggle=2;curveFitting=1;orthogonalLoop=1;jettySize=auto;html=1;fontFamily=Architects Daughter;fontSource=https%3A%2F%2Ffonts.googleapis.com%2Fcss%3Ffamily%3DArchitects%2BDaughter;entryX=0.5;entryY=0;entryDx=0;entryDy=0;fontStyle=1;fontSize=24;" parent="1" source="uhfCs4SEMX8J-N3ipxAv-10" target="O8DZHJ-JFutvU1bhPZdp-1" edge="1">
          <mxGeometry relative="1" as="geometry">
            <mxPoint x="732" y="-36" as="targetPoint" />
          </mxGeometry>
        </mxCell>
        <mxCell id="O8DZHJ-JFutvU1bhPZdp-6" value="Unable to Parse File" style="edgeStyle=orthogonalEdgeStyle;rounded=1;sketch=1;hachureGap=4;jiggle=2;curveFitting=1;orthogonalLoop=1;jettySize=auto;html=1;entryX=1;entryY=0.5;entryDx=0;entryDy=0;fontFamily=Architects Daughter;fontSource=https%3A%2F%2Ffonts.googleapis.com%2Fcss%3Ffamily%3DArchitects%2BDaughter;fontStyle=1;fontSize=24;" parent="1" source="O8DZHJ-JFutvU1bhPZdp-3" target="O8DZHJ-JFutvU1bhPZdp-5" edge="1">
          <mxGeometry x="-0.0351" y="-30" relative="1" as="geometry">
            <mxPoint x="-1" as="offset" />
          </mxGeometry>
        </mxCell>
        <mxCell id="O8DZHJ-JFutvU1bhPZdp-3" value="&lt;div&gt;Parsed File&lt;/div&gt;&lt;div&gt;Correctly&lt;/div&gt;" style="rhombus;whiteSpace=wrap;html=1;rounded=1;sketch=1;hachureGap=4;jiggle=2;curveFitting=1;fontFamily=Architects Daughter;fontSource=https%3A%2F%2Ffonts.googleapis.com%2Fcss%3Ffamily%3DArchitects%2BDaughter;fontSize=24;fontStyle=1;fillColor=#dae8fc;strokeColor=#6c8ebf;" parent="1" vertex="1">
          <mxGeometry x="518" y="996" width="312" height="228" as="geometry" />
        </mxCell>
        <mxCell id="O8DZHJ-JFutvU1bhPZdp-5" value="Stop&lt;div&gt;2&lt;/div&gt;" style="ellipse;whiteSpace=wrap;html=1;rounded=1;sketch=1;hachureGap=4;jiggle=2;curveFitting=1;fontFamily=Architects Daughter;fontSource=https%3A%2F%2Ffonts.googleapis.com%2Fcss%3Ffamily%3DArchitects%2BDaughter;fontStyle=1;fontSize=24;fillColor=#e51400;fontColor=#ffffff;strokeColor=#B20000;" parent="1" vertex="1">
          <mxGeometry x="108" y="1070" width="120" height="80" as="geometry" />
        </mxCell>
        <UserObject label="Read File" link="data:page/id,KzlsbKa0Fu5riwQtYxwI" id="5V2dd5Ele3cnG0MlFcIi-1">
          <mxCell style="verticalLabelPosition=bottom;verticalAlign=top;html=1;shape=offPageConnector;rounded=0;size=0.5;sketch=1;hachureGap=4;jiggle=2;curveFitting=1;fontFamily=Architects Daughter;fontSource=https%3A%2F%2Ffonts.googleapis.com%2Fcss%3Ffamily%3DArchitects%2BDaughter;fontStyle=1;fontSize=24;fillColor=#0050ef;strokeColor=#001DBC;fontColor=#ffffff;" parent="1" vertex="1">
            <mxGeometry x="1164" y="-6" width="154" height="150" as="geometry" />
          </mxCell>
        </UserObject>
        <mxCell id="5V2dd5Ele3cnG0MlFcIi-4" value="Defined in&lt;div&gt;&#39;Flow Chart - Read File&#39;&lt;/div&gt;" style="shape=link;html=1;rounded=1;sketch=1;hachureGap=4;jiggle=2;curveFitting=1;fontFamily=Architects Daughter;fontSource=https%3A%2F%2Ffonts.googleapis.com%2Fcss%3Ffamily%3DArchitects%2BDaughter;exitX=1;exitY=0.5;exitDx=0;exitDy=0;entryX=0.016;entryY=0.438;entryDx=0;entryDy=0;entryPerimeter=0;fontStyle=1;fontSize=24;" parent="1" source="O8DZHJ-JFutvU1bhPZdp-1" target="5V2dd5Ele3cnG0MlFcIi-1" edge="1">
          <mxGeometry x="0.0099" y="48" width="100" relative="1" as="geometry">
            <mxPoint x="888" y="132" as="sourcePoint" />
            <mxPoint x="988" y="132" as="targetPoint" />
            <mxPoint x="1" as="offset" />
          </mxGeometry>
        </mxCell>
        <mxCell id="5V2dd5Ele3cnG0MlFcIi-6" value="Program: Launches Script" style="edgeStyle=orthogonalEdgeStyle;rounded=1;sketch=1;hachureGap=4;jiggle=2;curveFitting=1;orthogonalLoop=1;jettySize=auto;html=1;entryX=0.5;entryY=0;entryDx=0;entryDy=0;fontFamily=Architects Daughter;fontSource=https%3A%2F%2Ffonts.googleapis.com%2Fcss%3Ffamily%3DArchitects%2BDaughter;fontStyle=1;fontSize=24;" parent="1" source="5V2dd5Ele3cnG0MlFcIi-5" target="uhfCs4SEMX8J-N3ipxAv-1" edge="1">
          <mxGeometry x="-0.046" y="-24" relative="1" as="geometry">
            <mxPoint as="offset" />
          </mxGeometry>
        </mxCell>
        <mxCell id="5V2dd5Ele3cnG0MlFcIi-5" value="Program" style="shape=cylinder3;whiteSpace=wrap;html=1;boundedLbl=1;backgroundOutline=1;size=15;rounded=1;sketch=1;hachureGap=4;jiggle=2;curveFitting=1;fontFamily=Architects Daughter;fontSource=https%3A%2F%2Ffonts.googleapis.com%2Fcss%3Ffamily%3DArchitects%2BDaughter;fontStyle=1;fontSize=24;" parent="1" vertex="1">
          <mxGeometry x="1080" y="-902" width="108" height="100" as="geometry" />
        </mxCell>
        <mxCell id="5V2dd5Ele3cnG0MlFcIi-9" value="No Args" style="shape=hexagon;perimeter=hexagonPerimeter2;whiteSpace=wrap;html=1;fixedSize=1;rounded=1;sketch=1;hachureGap=4;jiggle=2;curveFitting=1;fontFamily=Architects Daughter;fontSource=https%3A%2F%2Ffonts.googleapis.com%2Fcss%3Ffamily%3DArchitects%2BDaughter;fontStyle=1;fontSize=24;" parent="1" vertex="1">
          <mxGeometry x="386" y="-792" width="120" height="80" as="geometry" />
        </mxCell>
        <mxCell id="5V2dd5Ele3cnG0MlFcIi-10" value="" style="shape=link;html=1;rounded=1;sketch=1;hachureGap=4;jiggle=2;curveFitting=1;fontFamily=Architects Daughter;fontSource=https%3A%2F%2Ffonts.googleapis.com%2Fcss%3Ffamily%3DArchitects%2BDaughter;entryX=0;entryY=0.5;entryDx=0;entryDy=0;exitX=1;exitY=0.5;exitDx=0;exitDy=0;dashed=1;dashPattern=12 12;" parent="1" source="5V2dd5Ele3cnG0MlFcIi-9" target="uhfCs4SEMX8J-N3ipxAv-1" edge="1">
          <mxGeometry width="100" relative="1" as="geometry">
            <mxPoint x="440" y="-780" as="sourcePoint" />
            <mxPoint x="540" y="-780" as="targetPoint" />
          </mxGeometry>
        </mxCell>
        <mxCell id="5V2dd5Ele3cnG0MlFcIi-11" value="GNU\Linux - Makefile&lt;div&gt;Windows - make.bat&lt;/div&gt;" style="strokeWidth=2;html=1;shape=mxgraph.flowchart.document2;whiteSpace=wrap;size=0.25;rounded=1;sketch=1;hachureGap=4;jiggle=2;curveFitting=1;fontFamily=Architects Daughter;fontSource=https%3A%2F%2Ffonts.googleapis.com%2Fcss%3Ffamily%3DArchitects%2BDaughter;fontSize=24;fontStyle=1;verticalAlign=top;" parent="1" vertex="1">
          <mxGeometry x="1344" y="-1056" width="324" height="96" as="geometry" />
        </mxCell>
        <mxCell id="5V2dd5Ele3cnG0MlFcIi-12" value="" style="endArrow=classic;html=1;rounded=0;sketch=1;hachureGap=4;jiggle=2;curveFitting=1;fontFamily=Architects Daughter;fontSource=https%3A%2F%2Ffonts.googleapis.com%2Fcss%3Ffamily%3DArchitects%2BDaughter;entryX=1;entryY=0.5;entryDx=0;entryDy=0;entryPerimeter=0;exitX=0;exitY=0.5;exitDx=0;exitDy=0;exitPerimeter=0;curved=1;dashed=1;dashPattern=1 4;" parent="1" source="5V2dd5Ele3cnG0MlFcIi-11" target="5V2dd5Ele3cnG0MlFcIi-5" edge="1">
          <mxGeometry width="50" height="50" relative="1" as="geometry">
            <mxPoint x="1056" y="-982" as="sourcePoint" />
            <mxPoint x="1106" y="-1032" as="targetPoint" />
            <Array as="points">
              <mxPoint x="1260" y="-982" />
              <mxPoint x="1296" y="-852" />
            </Array>
          </mxGeometry>
        </mxCell>
        <mxCell id="_eGOUIHq85ly8DznU-0h-11" value="" style="shape=table;startSize=0;container=1;collapsible=0;childLayout=tableLayout;fontSize=16;sketch=1;hachureGap=4;jiggle=2;curveFitting=1;fontFamily=Architects Daughter;fontSource=https%3A%2F%2Ffonts.googleapis.com%2Fcss%3Ffamily%3DArchitects%2BDaughter;" vertex="1" parent="1">
          <mxGeometry x="1068" y="-660" width="324" height="192" as="geometry" />
        </mxCell>
        <mxCell id="_eGOUIHq85ly8DznU-0h-12" value="" style="shape=tableRow;horizontal=0;startSize=0;swimlaneHead=0;swimlaneBody=0;strokeColor=inherit;top=0;left=0;bottom=0;right=0;collapsible=0;dropTarget=0;fillColor=none;points=[[0,0.5],[1,0.5]];portConstraint=eastwest;fontSize=16;sketch=1;hachureGap=4;jiggle=2;curveFitting=1;fontFamily=Architects Daughter;fontSource=https%3A%2F%2Ffonts.googleapis.com%2Fcss%3Ffamily%3DArchitects%2BDaughter;" vertex="1" parent="_eGOUIHq85ly8DznU-0h-11">
          <mxGeometry width="324" height="64" as="geometry" />
        </mxCell>
        <mxCell id="_eGOUIHq85ly8DznU-0h-13" value="&lt;b&gt;&lt;u&gt;Variable&lt;/u&gt;&lt;/b&gt;&lt;div&gt;&lt;b&gt;&lt;u&gt;Name&lt;/u&gt;&lt;/b&gt;&lt;/div&gt;" style="shape=partialRectangle;html=1;whiteSpace=wrap;connectable=0;strokeColor=inherit;overflow=hidden;fillColor=none;top=0;left=0;bottom=0;right=0;pointerEvents=1;fontSize=16;sketch=1;hachureGap=4;jiggle=2;curveFitting=1;fontFamily=Architects Daughter;fontSource=https%3A%2F%2Ffonts.googleapis.com%2Fcss%3Ffamily%3DArchitects%2BDaughter;" vertex="1" parent="_eGOUIHq85ly8DznU-0h-12">
          <mxGeometry width="162" height="64" as="geometry">
            <mxRectangle width="162" height="64" as="alternateBounds" />
          </mxGeometry>
        </mxCell>
        <mxCell id="_eGOUIHq85ly8DznU-0h-14" value="&lt;b&gt;&lt;u&gt;Value&lt;/u&gt;&lt;/b&gt;" style="shape=partialRectangle;html=1;whiteSpace=wrap;connectable=0;strokeColor=inherit;overflow=hidden;fillColor=none;top=0;left=0;bottom=0;right=0;pointerEvents=1;fontSize=16;sketch=1;hachureGap=4;jiggle=2;curveFitting=1;fontFamily=Architects Daughter;fontSource=https%3A%2F%2Ffonts.googleapis.com%2Fcss%3Ffamily%3DArchitects%2BDaughter;" vertex="1" parent="_eGOUIHq85ly8DznU-0h-12">
          <mxGeometry x="162" width="162" height="64" as="geometry">
            <mxRectangle width="162" height="64" as="alternateBounds" />
          </mxGeometry>
        </mxCell>
        <mxCell id="_eGOUIHq85ly8DznU-0h-16" value="" style="shape=tableRow;horizontal=0;startSize=0;swimlaneHead=0;swimlaneBody=0;strokeColor=inherit;top=0;left=0;bottom=0;right=0;collapsible=0;dropTarget=0;fillColor=none;points=[[0,0.5],[1,0.5]];portConstraint=eastwest;fontSize=16;sketch=1;hachureGap=4;jiggle=2;curveFitting=1;fontFamily=Architects Daughter;fontSource=https%3A%2F%2Ffonts.googleapis.com%2Fcss%3Ffamily%3DArchitects%2BDaughter;" vertex="1" parent="_eGOUIHq85ly8DznU-0h-11">
          <mxGeometry y="64" width="324" height="64" as="geometry" />
        </mxCell>
        <mxCell id="_eGOUIHq85ly8DznU-0h-17" value="fileMakeInstruction" style="shape=partialRectangle;html=1;whiteSpace=wrap;connectable=0;strokeColor=inherit;overflow=hidden;fillColor=none;top=0;left=0;bottom=0;right=0;pointerEvents=1;fontSize=16;sketch=1;hachureGap=4;jiggle=2;curveFitting=1;fontFamily=Architects Daughter;fontSource=https%3A%2F%2Ffonts.googleapis.com%2Fcss%3Ffamily%3DArchitects%2BDaughter;" vertex="1" parent="_eGOUIHq85ly8DznU-0h-16">
          <mxGeometry width="162" height="64" as="geometry">
            <mxRectangle width="162" height="64" as="alternateBounds" />
          </mxGeometry>
        </mxCell>
        <mxCell id="_eGOUIHq85ly8DznU-0h-18" value="./Make.Instruction" style="shape=partialRectangle;html=1;whiteSpace=wrap;connectable=0;strokeColor=inherit;overflow=hidden;fillColor=none;top=0;left=0;bottom=0;right=0;pointerEvents=1;fontSize=16;sketch=1;hachureGap=4;jiggle=2;curveFitting=1;fontFamily=Architects Daughter;fontSource=https%3A%2F%2Ffonts.googleapis.com%2Fcss%3Ffamily%3DArchitects%2BDaughter;" vertex="1" parent="_eGOUIHq85ly8DznU-0h-16">
          <mxGeometry x="162" width="162" height="64" as="geometry">
            <mxRectangle width="162" height="64" as="alternateBounds" />
          </mxGeometry>
        </mxCell>
        <mxCell id="_eGOUIHq85ly8DznU-0h-20" value="" style="shape=tableRow;horizontal=0;startSize=0;swimlaneHead=0;swimlaneBody=0;strokeColor=inherit;top=0;left=0;bottom=0;right=0;collapsible=0;dropTarget=0;fillColor=none;points=[[0,0.5],[1,0.5]];portConstraint=eastwest;fontSize=16;sketch=1;hachureGap=4;jiggle=2;curveFitting=1;fontFamily=Architects Daughter;fontSource=https%3A%2F%2Ffonts.googleapis.com%2Fcss%3Ffamily%3DArchitects%2BDaughter;" vertex="1" parent="_eGOUIHq85ly8DznU-0h-11">
          <mxGeometry y="128" width="324" height="64" as="geometry" />
        </mxCell>
        <mxCell id="_eGOUIHq85ly8DznU-0h-21" value="outputDirectory" style="shape=partialRectangle;html=1;whiteSpace=wrap;connectable=0;strokeColor=inherit;overflow=hidden;fillColor=none;top=0;left=0;bottom=0;right=0;pointerEvents=1;fontSize=16;sketch=1;hachureGap=4;jiggle=2;curveFitting=1;fontFamily=Architects Daughter;fontSource=https%3A%2F%2Ffonts.googleapis.com%2Fcss%3Ffamily%3DArchitects%2BDaughter;" vertex="1" parent="_eGOUIHq85ly8DznU-0h-20">
          <mxGeometry width="162" height="64" as="geometry">
            <mxRectangle width="162" height="64" as="alternateBounds" />
          </mxGeometry>
        </mxCell>
        <mxCell id="_eGOUIHq85ly8DznU-0h-22" value="./.TMP-MAKE" style="shape=partialRectangle;html=1;whiteSpace=wrap;connectable=0;strokeColor=inherit;overflow=hidden;fillColor=none;top=0;left=0;bottom=0;right=0;pointerEvents=1;fontSize=16;sketch=1;hachureGap=4;jiggle=2;curveFitting=1;fontFamily=Architects Daughter;fontSource=https%3A%2F%2Ffonts.googleapis.com%2Fcss%3Ffamily%3DArchitects%2BDaughter;" vertex="1" parent="_eGOUIHq85ly8DznU-0h-20">
          <mxGeometry x="162" width="162" height="64" as="geometry">
            <mxRectangle width="162" height="64" as="alternateBounds" />
          </mxGeometry>
        </mxCell>
        <mxCell id="R_SdafQYIxxgNZCuk3Qr-3" value="Failed to Capture Contents" style="edgeStyle=orthogonalEdgeStyle;rounded=0;sketch=1;hachureGap=4;jiggle=2;curveFitting=1;orthogonalLoop=1;jettySize=auto;html=1;entryX=1;entryY=0.5;entryDx=0;entryDy=0;fontFamily=Architects Daughter;fontSource=https%3A%2F%2Ffonts.googleapis.com%2Fcss%3Ffamily%3DArchitects%2BDaughter;fontSize=24;fontStyle=1" edge="1" parent="1" source="30Ouu6AVxRELDfcjIOFS-1" target="R_SdafQYIxxgNZCuk3Qr-2">
          <mxGeometry x="-0.0141" y="-22" relative="1" as="geometry">
            <mxPoint as="offset" />
          </mxGeometry>
        </mxCell>
        <mxCell id="1YCSJRDjYjNXqvn19OX1-2" value="Parse Instructions" style="edgeStyle=orthogonalEdgeStyle;rounded=0;sketch=1;hachureGap=4;jiggle=2;curveFitting=1;orthogonalLoop=1;jettySize=auto;html=1;entryX=0.5;entryY=0;entryDx=0;entryDy=0;fontFamily=Architects Daughter;fontSource=https%3A%2F%2Ffonts.googleapis.com%2Fcss%3Ffamily%3DArchitects%2BDaughter;fontSize=24;fontStyle=1" edge="1" parent="1" source="30Ouu6AVxRELDfcjIOFS-1" target="1YCSJRDjYjNXqvn19OX1-1">
          <mxGeometry relative="1" as="geometry" />
        </mxCell>
        <mxCell id="1YCSJRDjYjNXqvn19OX1-4" value="Defined in&lt;div&gt;&#39;Flow Chart - Parse&#39;&lt;/div&gt;" style="edgeStyle=orthogonalEdgeStyle;rounded=0;sketch=1;hachureGap=4;jiggle=2;curveFitting=1;orthogonalLoop=1;jettySize=auto;html=1;entryX=0;entryY=0.513;entryDx=0;entryDy=0;fontFamily=Architects Daughter;fontSource=https%3A%2F%2Ffonts.googleapis.com%2Fcss%3Ffamily%3DArchitects%2BDaughter;fontSize=24;fontStyle=1;entryPerimeter=0;exitX=1;exitY=0.5;exitDx=0;exitDy=0;" edge="1" parent="1" source="1YCSJRDjYjNXqvn19OX1-1" target="1YCSJRDjYjNXqvn19OX1-5">
          <mxGeometry x="-0.0051" y="37" relative="1" as="geometry">
            <mxPoint x="1185" y="550" as="targetPoint" />
            <mxPoint x="-27" y="-36" as="offset" />
          </mxGeometry>
        </mxCell>
        <mxCell id="30Ouu6AVxRELDfcjIOFS-1" value="Captured Contents&lt;div&gt;Entirely from File&lt;/div&gt;" style="rhombus;whiteSpace=wrap;html=1;sketch=1;hachureGap=4;jiggle=2;curveFitting=1;fontFamily=Architects Daughter;fontSource=https%3A%2F%2Ffonts.googleapis.com%2Fcss%3Ffamily%3DArchitects%2BDaughter;fontSize=24;fontStyle=1;fillColor=#ffe6cc;strokeColor=#d79b00;" vertex="1" parent="1">
          <mxGeometry x="533" y="288" width="278" height="288" as="geometry" />
        </mxCell>
        <mxCell id="R_SdafQYIxxgNZCuk3Qr-2" value="Stop&lt;div&gt;10&lt;/div&gt;" style="ellipse;whiteSpace=wrap;html=1;rounded=1;sketch=1;hachureGap=4;jiggle=2;curveFitting=1;fontFamily=Architects Daughter;fontSource=https%3A%2F%2Ffonts.googleapis.com%2Fcss%3Ffamily%3DArchitects%2BDaughter;fontStyle=1;fontSize=24;fillColor=#e51400;fontColor=#ffffff;strokeColor=#B20000;" vertex="1" parent="1">
          <mxGeometry x="48" y="392" width="120" height="80" as="geometry" />
        </mxCell>
        <mxCell id="1YCSJRDjYjNXqvn19OX1-1" value="Parse the Make.Instructions&lt;div&gt;Cached Contents&lt;/div&gt;" style="rounded=0;whiteSpace=wrap;html=1;sketch=1;hachureGap=4;jiggle=2;curveFitting=1;fontFamily=Architects Daughter;fontSource=https%3A%2F%2Ffonts.googleapis.com%2Fcss%3Ffamily%3DArchitects%2BDaughter;fontSize=24;fontStyle=1;fillColor=#e3c800;strokeColor=#B09500;fontColor=#FFFFFF;" vertex="1" parent="1">
          <mxGeometry x="466.5" y="684" width="414" height="192" as="geometry" />
        </mxCell>
        <UserObject label="Parse Contents" link="data:page/id,5bkYqV-rwIhNKgItnjpC" id="1YCSJRDjYjNXqvn19OX1-5">
          <mxCell style="verticalLabelPosition=bottom;verticalAlign=top;html=1;shape=offPageConnector;rounded=0;size=0.5;sketch=1;hachureGap=4;jiggle=2;curveFitting=1;fontFamily=Architects Daughter;fontSource=https%3A%2F%2Ffonts.googleapis.com%2Fcss%3Ffamily%3DArchitects%2BDaughter;fontStyle=1;fontSize=24;fillColor=#bac8d3;strokeColor=#23445d;" vertex="1" parent="1">
            <mxGeometry x="1190" y="705" width="154" height="150" as="geometry" />
          </mxCell>
        </UserObject>
        <mxCell id="ayoKbk-1Tl7qpQ6gT1Be-1" value="Check Parsing State" style="edgeStyle=orthogonalEdgeStyle;rounded=0;sketch=1;hachureGap=4;jiggle=2;curveFitting=1;orthogonalLoop=1;jettySize=auto;html=1;entryX=0.5;entryY=0.025;entryDx=0;entryDy=0;entryPerimeter=0;fontFamily=Architects Daughter;fontSource=https%3A%2F%2Ffonts.googleapis.com%2Fcss%3Ffamily%3DArchitects%2BDaughter;fontSize=24;fontStyle=1" edge="1" parent="1" source="1YCSJRDjYjNXqvn19OX1-1" target="O8DZHJ-JFutvU1bhPZdp-3">
          <mxGeometry relative="1" as="geometry" />
        </mxCell>
      </root>
    </mxGraphModel>
  </diagram>
  <diagram id="KzlsbKa0Fu5riwQtYxwI" name="Flow Chart - Read File">
    <mxGraphModel dx="4200" dy="1659" grid="1" gridSize="10" guides="1" tooltips="1" connect="1" arrows="1" fold="1" page="1" pageScale="1" pageWidth="850" pageHeight="1100" math="0" shadow="0">
      <root>
        <mxCell id="0" />
        <mxCell id="1" parent="0" />
        <mxCell id="NLK9YkqMtzXg5quSUVux-8" value="Access the File" style="edgeStyle=orthogonalEdgeStyle;rounded=0;sketch=1;hachureGap=4;jiggle=2;curveFitting=1;orthogonalLoop=1;jettySize=auto;html=1;entryX=0.5;entryY=0;entryDx=0;entryDy=0;fontFamily=Architects Daughter;fontSource=https%3A%2F%2Ffonts.googleapis.com%2Fcss%3Ffamily%3DArchitects%2BDaughter;fontSize=24;fontStyle=1" edge="1" parent="1" source="szerylyfHE3ywtqPkNni-1" target="NLK9YkqMtzXg5quSUVux-2">
          <mxGeometry relative="1" as="geometry" />
        </mxCell>
        <UserObject label="Flow Chart&lt;div&gt;Read File&lt;/div&gt;" link="data:page/id,RAIP8WqbPKQwYbwJJpqj" id="szerylyfHE3ywtqPkNni-1">
          <mxCell style="ellipse;whiteSpace=wrap;html=1;sketch=1;hachureGap=4;jiggle=2;curveFitting=1;fontFamily=Architects Daughter;fontSource=https%3A%2F%2Ffonts.googleapis.com%2Fcss%3Ffamily%3DArchitects%2BDaughter;fontStyle=1;fontSize=24;fillColor=#0050ef;fontColor=#ffffff;strokeColor=#001DBC;" vertex="1" parent="1">
            <mxGeometry x="513" width="175" height="80" as="geometry" />
          </mxCell>
        </UserObject>
        <mxCell id="NLK9YkqMtzXg5quSUVux-1" value="Did File Open&lt;div&gt;Successfully&lt;/div&gt;" style="edgeStyle=orthogonalEdgeStyle;rounded=1;sketch=1;hachureGap=4;jiggle=2;curveFitting=1;orthogonalLoop=1;jettySize=auto;html=1;entryX=0.5;entryY=0;entryDx=0;entryDy=0;fontFamily=Architects Daughter;fontSource=https%3A%2F%2Ffonts.googleapis.com%2Fcss%3Ffamily%3DArchitects%2BDaughter;fontStyle=1;fontSize=24;" edge="1" parent="1" source="NLK9YkqMtzXg5quSUVux-2" target="NLK9YkqMtzXg5quSUVux-5">
          <mxGeometry relative="1" as="geometry" />
        </mxCell>
        <mxCell id="NLK9YkqMtzXg5quSUVux-2" value="Open the .Make.Instruction&lt;div style=&quot;&quot;&gt;file for /read/ access only.&lt;/div&gt;" style="rounded=1;whiteSpace=wrap;html=1;sketch=1;hachureGap=4;jiggle=2;curveFitting=1;fontFamily=Architects Daughter;fontSource=https%3A%2F%2Ffonts.googleapis.com%2Fcss%3Ffamily%3DArchitects%2BDaughter;fontSize=24;fontStyle=1;fillColor=#ffe6cc;strokeColor=#d79b00;" vertex="1" parent="1">
          <mxGeometry x="435.25" y="170" width="330.5" height="132" as="geometry" />
        </mxCell>
        <mxCell id="NLK9YkqMtzXg5quSUVux-3" value="Failed to Open&lt;div&gt;File with Read Access&lt;/div&gt;" style="edgeStyle=orthogonalEdgeStyle;rounded=1;sketch=1;hachureGap=4;jiggle=2;curveFitting=1;orthogonalLoop=1;jettySize=auto;html=1;entryX=1;entryY=0.5;entryDx=0;entryDy=0;fontFamily=Architects Daughter;fontSource=https%3A%2F%2Ffonts.googleapis.com%2Fcss%3Ffamily%3DArchitects%2BDaughter;fontStyle=1;fontSize=24;" edge="1" parent="1" source="NLK9YkqMtzXg5quSUVux-5" target="NLK9YkqMtzXg5quSUVux-6">
          <mxGeometry y="-44" relative="1" as="geometry">
            <mxPoint as="offset" />
          </mxGeometry>
        </mxCell>
        <mxCell id="NLK9YkqMtzXg5quSUVux-4" value="Read File" style="edgeStyle=orthogonalEdgeStyle;rounded=1;sketch=1;hachureGap=4;jiggle=2;curveFitting=1;orthogonalLoop=1;jettySize=auto;html=1;entryX=0.5;entryY=0;entryDx=0;entryDy=0;fontFamily=Architects Daughter;fontSource=https%3A%2F%2Ffonts.googleapis.com%2Fcss%3Ffamily%3DArchitects%2BDaughter;fontStyle=1;fontSize=24;" edge="1" parent="1" source="NLK9YkqMtzXg5quSUVux-5" target="NLK9YkqMtzXg5quSUVux-7">
          <mxGeometry relative="1" as="geometry" />
        </mxCell>
        <mxCell id="NLK9YkqMtzXg5quSUVux-5" value="Successfully&lt;div&gt;Opened&amp;nbsp;&lt;span style=&quot;background-color: transparent; color: light-dark(rgb(0, 0, 0), rgb(255, 255, 255));&quot;&gt;File&lt;/span&gt;&lt;/div&gt;" style="rhombus;whiteSpace=wrap;html=1;rounded=1;sketch=1;hachureGap=4;jiggle=2;curveFitting=1;fontFamily=Architects Daughter;fontSource=https%3A%2F%2Ffonts.googleapis.com%2Fcss%3Ffamily%3DArchitects%2BDaughter;fontSize=24;fontStyle=1;fillColor=#e1d5e7;strokeColor=#9673a6;" vertex="1" parent="1">
          <mxGeometry x="475" y="430" width="250" height="228" as="geometry" />
        </mxCell>
        <mxCell id="NLK9YkqMtzXg5quSUVux-6" value="Stop&lt;div&gt;8&lt;/div&gt;" style="ellipse;whiteSpace=wrap;html=1;rounded=1;sketch=1;hachureGap=4;jiggle=2;curveFitting=1;fontFamily=Architects Daughter;fontSource=https%3A%2F%2Ffonts.googleapis.com%2Fcss%3Ffamily%3DArchitects%2BDaughter;fontSize=24;fillColor=#d80073;strokeColor=#A50040;fontColor=#ffffff;fontStyle=1" vertex="1" parent="1">
          <mxGeometry x="85" y="508.5" width="128" height="71" as="geometry" />
        </mxCell>
        <mxCell id="NLK9YkqMtzXg5quSUVux-10" value="Make sure Everything&lt;div&gt;was Captured&lt;/div&gt;" style="edgeStyle=orthogonalEdgeStyle;rounded=0;sketch=1;hachureGap=4;jiggle=2;curveFitting=1;orthogonalLoop=1;jettySize=auto;html=1;entryX=0.5;entryY=0;entryDx=0;entryDy=0;fontFamily=Architects Daughter;fontSource=https%3A%2F%2Ffonts.googleapis.com%2Fcss%3Ffamily%3DArchitects%2BDaughter;fontStyle=1;fontSize=24;" edge="1" parent="1" source="NLK9YkqMtzXg5quSUVux-7" target="NLK9YkqMtzXg5quSUVux-9">
          <mxGeometry relative="1" as="geometry" />
        </mxCell>
        <mxCell id="NLK9YkqMtzXg5quSUVux-7" value="Cache Contents as List&lt;div&gt;from&lt;/div&gt;&lt;div&gt;.Make.Instructions&lt;/div&gt;" style="rounded=1;whiteSpace=wrap;html=1;sketch=1;hachureGap=4;jiggle=2;curveFitting=1;fontFamily=Architects Daughter;fontSource=https%3A%2F%2Ffonts.googleapis.com%2Fcss%3Ffamily%3DArchitects%2BDaughter;fontStyle=1;fontSize=24;fillColor=#dae8fc;strokeColor=#6c8ebf;" vertex="1" parent="1">
          <mxGeometry x="454" y="750" width="293" height="144" as="geometry" />
        </mxCell>
        <mxCell id="zD-_jdEFuTmlQLccOh8E-2" value="Failed to Capture&lt;div&gt;Data from File&lt;/div&gt;" style="edgeStyle=orthogonalEdgeStyle;rounded=0;sketch=1;hachureGap=4;jiggle=2;curveFitting=1;orthogonalLoop=1;jettySize=auto;html=1;entryX=1;entryY=0.5;entryDx=0;entryDy=0;fontFamily=Architects Daughter;fontSource=https%3A%2F%2Ffonts.googleapis.com%2Fcss%3Ffamily%3DArchitects%2BDaughter;fontStyle=1;fontSize=24;" edge="1" parent="1" source="NLK9YkqMtzXg5quSUVux-9" target="zD-_jdEFuTmlQLccOh8E-1">
          <mxGeometry x="-0.0274" y="-40" relative="1" as="geometry">
            <mxPoint as="offset" />
          </mxGeometry>
        </mxCell>
        <mxCell id="zD-_jdEFuTmlQLccOh8E-4" value="Operation was Successful" style="edgeStyle=orthogonalEdgeStyle;rounded=0;sketch=1;hachureGap=4;jiggle=2;curveFitting=1;orthogonalLoop=1;jettySize=auto;html=1;entryX=0.5;entryY=0;entryDx=0;entryDy=0;fontFamily=Architects Daughter;fontSource=https%3A%2F%2Ffonts.googleapis.com%2Fcss%3Ffamily%3DArchitects%2BDaughter;fontStyle=1;fontSize=24;" edge="1" parent="1" source="NLK9YkqMtzXg5quSUVux-9" target="zD-_jdEFuTmlQLccOh8E-3">
          <mxGeometry relative="1" as="geometry" />
        </mxCell>
        <mxCell id="NLK9YkqMtzXg5quSUVux-9" value="Cached the Contents Successfully" style="rhombus;whiteSpace=wrap;html=1;sketch=1;hachureGap=4;jiggle=2;curveFitting=1;fontFamily=Architects Daughter;fontSource=https%3A%2F%2Ffonts.googleapis.com%2Fcss%3Ffamily%3DArchitects%2BDaughter;fontSize=24;fontStyle=1;fillColor=#1ba1e2;fontColor=#ffffff;strokeColor=#006EAF;" vertex="1" parent="1">
          <mxGeometry x="450.5" y="1020" width="300" height="260" as="geometry" />
        </mxCell>
        <mxCell id="zD-_jdEFuTmlQLccOh8E-1" value="Stop&lt;div&gt;10&lt;/div&gt;" style="ellipse;whiteSpace=wrap;html=1;rounded=1;sketch=1;hachureGap=4;jiggle=2;curveFitting=1;fontFamily=Architects Daughter;fontSource=https%3A%2F%2Ffonts.googleapis.com%2Fcss%3Ffamily%3DArchitects%2BDaughter;fontSize=24;fillColor=#d80073;strokeColor=#A50040;fontColor=#ffffff;fontStyle=1" vertex="1" parent="1">
          <mxGeometry x="85" y="1114.5" width="128" height="71" as="geometry" />
        </mxCell>
        <mxCell id="zD-_jdEFuTmlQLccOh8E-3" value="Done" style="ellipse;whiteSpace=wrap;html=1;sketch=1;hachureGap=4;jiggle=2;curveFitting=1;fontFamily=Architects Daughter;fontSource=https%3A%2F%2Ffonts.googleapis.com%2Fcss%3Ffamily%3DArchitects%2BDaughter;fontStyle=1;fontSize=24;fillColor=#60a917;fontColor=#ffffff;strokeColor=#2D7600;" vertex="1" parent="1">
          <mxGeometry x="540" y="1380" width="120" height="80" as="geometry" />
        </mxCell>
        <mxCell id="kqo9sia4zw2hEh6fsEkV-1" value="The purpose of this function is to read in the .Make.Instruction into a List String variable.&lt;div&gt;&lt;br&gt;&lt;/div&gt;&lt;div&gt;Only Read, do not process.&lt;/div&gt;" style="shape=document;whiteSpace=wrap;html=1;boundedLbl=1;sketch=1;hachureGap=4;jiggle=2;curveFitting=1;fontFamily=Architects Daughter;fontSource=https%3A%2F%2Ffonts.googleapis.com%2Fcss%3Ffamily%3DArchitects%2BDaughter;fontSize=24;fontStyle=1;align=left;verticalAlign=top;" vertex="1" parent="1">
          <mxGeometry width="400" height="230" as="geometry" />
        </mxCell>
      </root>
    </mxGraphModel>
  </diagram>
  <diagram name="Flow Chart - Parse" id="5bkYqV-rwIhNKgItnjpC">
    <mxGraphModel dx="5375" dy="1451" grid="1" gridSize="12" guides="1" tooltips="1" connect="1" arrows="1" fold="1" page="1" pageScale="1" pageWidth="850" pageHeight="1100" math="0" shadow="0">
      <root>
        <mxCell id="uwz9AWxOwD2hvtBg_4yy-0" />
        <mxCell id="uwz9AWxOwD2hvtBg_4yy-1" parent="uwz9AWxOwD2hvtBg_4yy-0" />
        <mxCell id="18VjboyddKtIW048viAq-2" value="Remove Unnecessary Lines" style="edgeStyle=orthogonalEdgeStyle;rounded=0;sketch=1;hachureGap=4;jiggle=2;curveFitting=1;orthogonalLoop=1;jettySize=auto;html=1;entryX=0.5;entryY=0;entryDx=0;entryDy=0;fontFamily=Architects Daughter;fontSource=https%3A%2F%2Ffonts.googleapis.com%2Fcss%3Ffamily%3DArchitects%2BDaughter;fontSize=24;fontStyle=1" edge="1" parent="uwz9AWxOwD2hvtBg_4yy-1" source="uwz9AWxOwD2hvtBg_4yy-3" target="18VjboyddKtIW048viAq-1">
          <mxGeometry relative="1" as="geometry" />
        </mxCell>
        <UserObject label="Parse&lt;div&gt;Instructions&lt;/div&gt;" link="data:page/id,RAIP8WqbPKQwYbwJJpqj" id="uwz9AWxOwD2hvtBg_4yy-3">
          <mxCell style="ellipse;whiteSpace=wrap;html=1;rounded=1;sketch=1;hachureGap=4;jiggle=2;curveFitting=1;fontFamily=Architects Daughter;fontSource=https%3A%2F%2Ffonts.googleapis.com%2Fcss%3Ffamily%3DArchitects%2BDaughter;fontStyle=1;fontSize=24;fillColor=#1ba1e2;fontColor=#ffffff;strokeColor=#006EAF;gradientColor=none;" vertex="1" parent="uwz9AWxOwD2hvtBg_4yy-1">
            <mxGeometry x="314" width="223" height="108" as="geometry" />
          </mxCell>
        </UserObject>
        <mxCell id="uwz9AWxOwD2hvtBg_4yy-4" value=".Make.Instruction&#xa;Assets" style="shape=table;startSize=72;container=1;collapsible=0;childLayout=tableLayout;sketch=1;curveFitting=1;jiggle=2;rounded=1;fontStyle=1;fontSize=24;fontFamily=Architects Daughter;" vertex="1" parent="uwz9AWxOwD2hvtBg_4yy-1">
          <mxGeometry x="912" y="24" width="816" height="312" as="geometry" />
        </mxCell>
        <mxCell id="uwz9AWxOwD2hvtBg_4yy-5" value="" style="shape=tableRow;horizontal=0;startSize=0;swimlaneHead=0;swimlaneBody=0;strokeColor=inherit;top=0;left=0;bottom=0;right=0;collapsible=0;dropTarget=0;fillColor=none;points=[[0,0.5],[1,0.5]];portConstraint=eastwest;sketch=1;curveFitting=1;jiggle=2;rounded=1;fontStyle=1;fontSize=24;fontFamily=Architects Daughter;" vertex="1" parent="uwz9AWxOwD2hvtBg_4yy-4">
          <mxGeometry y="72" width="816" height="49" as="geometry" />
        </mxCell>
        <mxCell id="uwz9AWxOwD2hvtBg_4yy-6" value="%PROJDIR%/Textures/TGRDM3/Patches/*" style="shape=partialRectangle;html=1;whiteSpace=wrap;connectable=0;strokeColor=inherit;overflow=hidden;fillColor=none;top=0;left=0;bottom=0;right=0;pointerEvents=1;sketch=1;curveFitting=1;jiggle=2;rounded=1;fontStyle=1;fontSize=24;fontFamily=Architects Daughter;align=left;" vertex="1" parent="uwz9AWxOwD2hvtBg_4yy-5">
          <mxGeometry width="480" height="49" as="geometry">
            <mxRectangle width="480" height="49" as="alternateBounds" />
          </mxGeometry>
        </mxCell>
        <mxCell id="uwz9AWxOwD2hvtBg_4yy-7" value="%TMPDIR%/Textures" style="shape=partialRectangle;html=1;whiteSpace=wrap;connectable=0;strokeColor=inherit;overflow=hidden;fillColor=none;top=0;left=0;bottom=0;right=0;pointerEvents=1;sketch=1;curveFitting=1;jiggle=2;rounded=1;fontStyle=1;fontSize=24;fontFamily=Architects Daughter;" vertex="1" parent="uwz9AWxOwD2hvtBg_4yy-5">
          <mxGeometry x="480" width="336" height="49" as="geometry">
            <mxRectangle width="336" height="49" as="alternateBounds" />
          </mxGeometry>
        </mxCell>
        <mxCell id="uwz9AWxOwD2hvtBg_4yy-8" value="" style="shape=tableRow;horizontal=0;startSize=0;swimlaneHead=0;swimlaneBody=0;strokeColor=inherit;top=0;left=0;bottom=0;right=0;collapsible=0;dropTarget=0;fillColor=none;points=[[0,0.5],[1,0.5]];portConstraint=eastwest;sketch=1;curveFitting=1;jiggle=2;rounded=1;fontStyle=1;fontSize=24;fontFamily=Architects Daughter;" vertex="1" parent="uwz9AWxOwD2hvtBg_4yy-4">
          <mxGeometry y="121" width="816" height="47" as="geometry" />
        </mxCell>
        <mxCell id="uwz9AWxOwD2hvtBg_4yy-9" value="%PROJDIR%/Textures/SkullDizzle/Flats/*" style="shape=partialRectangle;html=1;whiteSpace=wrap;connectable=0;strokeColor=inherit;overflow=hidden;fillColor=none;top=0;left=0;bottom=0;right=0;pointerEvents=1;sketch=1;curveFitting=1;jiggle=2;rounded=1;fontStyle=1;fontSize=24;fontFamily=Architects Daughter;align=left;" vertex="1" parent="uwz9AWxOwD2hvtBg_4yy-8">
          <mxGeometry width="480" height="47" as="geometry">
            <mxRectangle width="480" height="47" as="alternateBounds" />
          </mxGeometry>
        </mxCell>
        <mxCell id="uwz9AWxOwD2hvtBg_4yy-10" value="%TMPDIR%/Textures" style="shape=partialRectangle;html=1;whiteSpace=wrap;connectable=0;strokeColor=inherit;overflow=hidden;fillColor=none;top=0;left=0;bottom=0;right=0;pointerEvents=1;sketch=1;curveFitting=1;jiggle=2;rounded=1;fontStyle=1;fontSize=24;fontFamily=Architects Daughter;" vertex="1" parent="uwz9AWxOwD2hvtBg_4yy-8">
          <mxGeometry x="480" width="336" height="47" as="geometry">
            <mxRectangle width="336" height="47" as="alternateBounds" />
          </mxGeometry>
        </mxCell>
        <mxCell id="uwz9AWxOwD2hvtBg_4yy-11" value="" style="shape=tableRow;horizontal=0;startSize=0;swimlaneHead=0;swimlaneBody=0;strokeColor=inherit;top=0;left=0;bottom=0;right=0;collapsible=0;dropTarget=0;fillColor=none;points=[[0,0.5],[1,0.5]];portConstraint=eastwest;sketch=1;curveFitting=1;jiggle=2;rounded=1;fontStyle=1;fontSize=24;fontFamily=Architects Daughter;" vertex="1" parent="uwz9AWxOwD2hvtBg_4yy-4">
          <mxGeometry y="168" width="816" height="48" as="geometry" />
        </mxCell>
        <mxCell id="uwz9AWxOwD2hvtBg_4yy-12" value="%PROJDIR%/Maps/Episode_1/*" style="shape=partialRectangle;html=1;whiteSpace=wrap;connectable=0;strokeColor=inherit;overflow=hidden;fillColor=none;top=0;left=0;bottom=0;right=0;pointerEvents=1;sketch=1;curveFitting=1;jiggle=2;rounded=1;fontStyle=1;fontSize=24;fontFamily=Architects Daughter;align=left;" vertex="1" parent="uwz9AWxOwD2hvtBg_4yy-11">
          <mxGeometry width="480" height="48" as="geometry">
            <mxRectangle width="480" height="48" as="alternateBounds" />
          </mxGeometry>
        </mxCell>
        <mxCell id="uwz9AWxOwD2hvtBg_4yy-13" value="%TMPDIR%/Maps" style="shape=partialRectangle;html=1;whiteSpace=wrap;connectable=0;strokeColor=inherit;overflow=hidden;fillColor=none;top=0;left=0;bottom=0;right=0;pointerEvents=1;sketch=1;curveFitting=1;jiggle=2;rounded=1;fontStyle=1;fontSize=24;fontFamily=Architects Daughter;" vertex="1" parent="uwz9AWxOwD2hvtBg_4yy-11">
          <mxGeometry x="480" width="336" height="48" as="geometry">
            <mxRectangle width="336" height="48" as="alternateBounds" />
          </mxGeometry>
        </mxCell>
        <mxCell id="uwz9AWxOwD2hvtBg_4yy-14" value="" style="shape=tableRow;horizontal=0;startSize=0;swimlaneHead=0;swimlaneBody=0;strokeColor=inherit;top=0;left=0;bottom=0;right=0;collapsible=0;dropTarget=0;fillColor=none;points=[[0,0.5],[1,0.5]];portConstraint=eastwest;sketch=1;curveFitting=1;jiggle=2;rounded=1;fontStyle=1;fontSize=24;fontFamily=Architects Daughter;" vertex="1" parent="uwz9AWxOwD2hvtBg_4yy-4">
          <mxGeometry y="216" width="816" height="47" as="geometry" />
        </mxCell>
        <mxCell id="uwz9AWxOwD2hvtBg_4yy-15" value="%PROJDIR%/Voxels/DoomHiRes/*" style="shape=partialRectangle;html=1;whiteSpace=wrap;connectable=0;strokeColor=inherit;overflow=hidden;fillColor=none;top=0;left=0;bottom=0;right=0;pointerEvents=1;sketch=1;curveFitting=1;jiggle=2;rounded=1;fontStyle=1;fontSize=24;fontFamily=Architects Daughter;align=left;" vertex="1" parent="uwz9AWxOwD2hvtBg_4yy-14">
          <mxGeometry width="480" height="47" as="geometry">
            <mxRectangle width="480" height="47" as="alternateBounds" />
          </mxGeometry>
        </mxCell>
        <mxCell id="uwz9AWxOwD2hvtBg_4yy-16" value="%TMPDIR%/Voxel" style="shape=partialRectangle;html=1;whiteSpace=wrap;connectable=0;strokeColor=inherit;overflow=hidden;fillColor=none;top=0;left=0;bottom=0;right=0;pointerEvents=1;sketch=1;curveFitting=1;jiggle=2;rounded=1;fontStyle=1;fontSize=24;fontFamily=Architects Daughter;" vertex="1" parent="uwz9AWxOwD2hvtBg_4yy-14">
          <mxGeometry x="480" width="336" height="47" as="geometry">
            <mxRectangle width="336" height="47" as="alternateBounds" />
          </mxGeometry>
        </mxCell>
        <mxCell id="uwz9AWxOwD2hvtBg_4yy-17" value="" style="shape=tableRow;horizontal=0;startSize=0;swimlaneHead=0;swimlaneBody=0;strokeColor=inherit;top=0;left=0;bottom=0;right=0;collapsible=0;dropTarget=0;fillColor=none;points=[[0,0.5],[1,0.5]];portConstraint=eastwest;sketch=1;curveFitting=1;jiggle=2;rounded=1;fontStyle=1;fontSize=24;fontFamily=Architects Daughter;" vertex="1" parent="uwz9AWxOwD2hvtBg_4yy-4">
          <mxGeometry y="263" width="816" height="49" as="geometry" />
        </mxCell>
        <mxCell id="uwz9AWxOwD2hvtBg_4yy-18" value="%PROJDIR%/Sounds/World/Ambient/*" style="shape=partialRectangle;html=1;whiteSpace=wrap;connectable=0;strokeColor=inherit;overflow=hidden;fillColor=none;top=0;left=0;bottom=0;right=0;pointerEvents=1;sketch=1;curveFitting=1;jiggle=2;rounded=1;fontStyle=1;fontSize=24;fontFamily=Architects Daughter;align=left;" vertex="1" parent="uwz9AWxOwD2hvtBg_4yy-17">
          <mxGeometry width="480" height="49" as="geometry">
            <mxRectangle width="480" height="49" as="alternateBounds" />
          </mxGeometry>
        </mxCell>
        <mxCell id="uwz9AWxOwD2hvtBg_4yy-19" value="%TMPDIR%/Sound" style="shape=partialRectangle;html=1;whiteSpace=wrap;connectable=0;strokeColor=inherit;overflow=hidden;fillColor=none;top=0;left=0;bottom=0;right=0;pointerEvents=1;sketch=1;curveFitting=1;jiggle=2;rounded=1;fontStyle=1;fontSize=24;fontFamily=Architects Daughter;" vertex="1" parent="uwz9AWxOwD2hvtBg_4yy-17">
          <mxGeometry x="480" width="336" height="49" as="geometry">
            <mxRectangle width="336" height="49" as="alternateBounds" />
          </mxGeometry>
        </mxCell>
        <mxCell id="uwz9AWxOwD2hvtBg_4yy-23" value="&lt;div&gt;&lt;span style=&quot;background-color: transparent; color: light-dark(rgb(0, 0, 0), rgb(255, 255, 255));&quot;&gt;# This is a comment!&lt;/span&gt;&lt;/div&gt;&lt;div&gt;&lt;span style=&quot;background-color: transparent; color: light-dark(rgb(0, 0, 0), rgb(255, 255, 255));&quot;&gt;# This block will contain where the files will be stored within the PK3 file.&lt;/span&gt;&lt;br&gt;&lt;/div&gt;&lt;div&gt;GAME_ASSET_PATHING&lt;/div&gt;&lt;div&gt;{&lt;/div&gt;&lt;div&gt;&amp;nbsp; &amp;nbsp; # Script Lump Files&lt;/div&gt;&lt;div&gt;&amp;nbsp; &amp;nbsp; &quot;Root&quot;, &quot;%PROJDIR%/MapInfo/*.txt&quot;&lt;/div&gt;&lt;div&gt;&lt;br&gt;&lt;/div&gt;&lt;div&gt;&amp;nbsp; &amp;nbsp; # TGRDM3 Texture Set - Pointing to a collection of files.&lt;/div&gt;&lt;div&gt;&amp;nbsp; &amp;nbsp; &quot;Textures&quot;, &quot;%PROJDIR%/Textures/TGRDM3/Textures/*.*&quot;&lt;/div&gt;&lt;div&gt;&lt;br&gt;&lt;/div&gt;&lt;div&gt;&amp;nbsp; &amp;nbsp; # Alphecca Map - Pointing to a collection of files.&lt;/div&gt;&lt;div&gt;&amp;nbsp; &amp;nbsp; &quot;Maps&quot;, &quot;%PROJDIR%/Maps/Episode_1/*.*&quot;&lt;/div&gt;&lt;div&gt;&lt;br&gt;&lt;/div&gt;&lt;div&gt;&amp;nbsp; &amp;nbsp; # The Tiger Voxel - Pointing to a specific file.&lt;/div&gt;&lt;div&gt;&amp;nbsp; &amp;nbsp; &quot;Voxel&quot;, &quot;%PROJDIR%/Voxel/Tiger/*.*&quot;&lt;/div&gt;&lt;div&gt;} #GAME_ASSET_PATHING&lt;/div&gt;&lt;div&gt;&lt;br&gt;&lt;/div&gt;&lt;div&gt;# Compile some ACS script&lt;/div&gt;&lt;div&gt;ACC_COMPILE_EXEC&lt;/div&gt;&lt;div&gt;{&lt;/div&gt;&lt;div&gt;&lt;span style=&quot;white-space: pre;&quot;&gt;&#x9;&lt;/span&gt;# TBD&lt;br&gt;&lt;/div&gt;&lt;div&gt;} # ACC_COMPILE_EXEC&lt;/div&gt;&lt;div&gt;&lt;br&gt;&lt;/div&gt;" style="shape=note;whiteSpace=wrap;html=1;backgroundOutline=1;darkOpacity=0.05;rounded=1;sketch=1;hachureGap=4;jiggle=2;curveFitting=1;fontFamily=Architects Daughter;fontSource=https%3A%2F%2Ffonts.googleapis.com%2Fcss%3Ffamily%3DArchitects%2BDaughter;align=left;verticalAlign=top;fontSize=24;fontStyle=1" vertex="1" parent="uwz9AWxOwD2hvtBg_4yy-1">
          <mxGeometry x="912" y="384" width="912" height="672" as="geometry" />
        </mxCell>
        <mxCell id="uwz9AWxOwD2hvtBg_4yy-36" value=".Make.Instruction&#xa;Semantics" style="shape=table;startSize=72;container=1;collapsible=0;childLayout=tableLayout;rounded=1;sketch=1;hachureGap=4;jiggle=2;curveFitting=1;fontFamily=Architects Daughter;fontSource=https%3A%2F%2Ffonts.googleapis.com%2Fcss%3Ffamily%3DArchitects%2BDaughter;fontStyle=1;fontSize=24;" vertex="1" parent="uwz9AWxOwD2hvtBg_4yy-1">
          <mxGeometry x="1920" y="96" width="1440" height="720" as="geometry" />
        </mxCell>
        <mxCell id="uwz9AWxOwD2hvtBg_4yy-37" value="" style="shape=tableRow;horizontal=0;startSize=0;swimlaneHead=0;swimlaneBody=0;strokeColor=inherit;top=0;left=0;bottom=0;right=0;collapsible=0;dropTarget=0;fillColor=none;points=[[0,0.5],[1,0.5]];portConstraint=eastwest;rounded=1;sketch=1;hachureGap=4;jiggle=2;curveFitting=1;fontFamily=Architects Daughter;fontSource=https%3A%2F%2Ffonts.googleapis.com%2Fcss%3Ffamily%3DArchitects%2BDaughter;align=left;fontStyle=1;fontSize=24;" vertex="1" parent="uwz9AWxOwD2hvtBg_4yy-36">
          <mxGeometry y="72" width="1440" height="129" as="geometry" />
        </mxCell>
        <mxCell id="uwz9AWxOwD2hvtBg_4yy-38" value="# Comment" style="shape=partialRectangle;html=1;whiteSpace=wrap;connectable=0;strokeColor=inherit;overflow=hidden;fillColor=none;top=0;left=0;bottom=0;right=0;pointerEvents=1;rounded=1;sketch=1;hachureGap=4;jiggle=2;curveFitting=1;fontFamily=Architects Daughter;fontSource=https%3A%2F%2Ffonts.googleapis.com%2Fcss%3Ffamily%3DArchitects%2BDaughter;align=left;fontStyle=1;fontSize=24;" vertex="1" parent="uwz9AWxOwD2hvtBg_4yy-37">
          <mxGeometry width="403" height="129" as="geometry">
            <mxRectangle width="403" height="129" as="alternateBounds" />
          </mxGeometry>
        </mxCell>
        <mxCell id="uwz9AWxOwD2hvtBg_4yy-39" value="Comments are denoted with &#39;#&#39; char.&lt;div&gt;Comments must be in new lines, never combined with other statements.&lt;/div&gt;" style="shape=partialRectangle;html=1;whiteSpace=wrap;connectable=0;strokeColor=inherit;overflow=hidden;fillColor=none;top=0;left=0;bottom=0;right=0;pointerEvents=1;rounded=1;sketch=1;hachureGap=4;jiggle=2;curveFitting=1;fontFamily=Architects Daughter;fontSource=https%3A%2F%2Ffonts.googleapis.com%2Fcss%3Ffamily%3DArchitects%2BDaughter;fontSize=24;fontStyle=1" vertex="1" parent="uwz9AWxOwD2hvtBg_4yy-37">
          <mxGeometry x="403" width="1037" height="129" as="geometry">
            <mxRectangle width="1037" height="129" as="alternateBounds" />
          </mxGeometry>
        </mxCell>
        <mxCell id="uwz9AWxOwD2hvtBg_4yy-40" value="" style="shape=tableRow;horizontal=0;startSize=0;swimlaneHead=0;swimlaneBody=0;strokeColor=inherit;top=0;left=0;bottom=0;right=0;collapsible=0;dropTarget=0;fillColor=none;points=[[0,0.5],[1,0.5]];portConstraint=eastwest;rounded=1;sketch=1;hachureGap=4;jiggle=2;curveFitting=1;fontFamily=Architects Daughter;fontSource=https%3A%2F%2Ffonts.googleapis.com%2Fcss%3Ffamily%3DArchitects%2BDaughter;" vertex="1" parent="uwz9AWxOwD2hvtBg_4yy-36">
          <mxGeometry y="201" width="1440" height="128" as="geometry" />
        </mxCell>
        <mxCell id="uwz9AWxOwD2hvtBg_4yy-41" value="&lt;span&gt;&lt;font style=&quot;font-size: 24px;&quot;&gt;GAME_ASSET_PATHING&lt;/font&gt;&lt;/span&gt;&lt;div&gt;&lt;span&gt;&lt;font style=&quot;font-size: 24px;&quot;&gt;ACC_COMPILE_EXEC&lt;/font&gt;&lt;/span&gt;&lt;/div&gt;" style="shape=partialRectangle;html=1;whiteSpace=wrap;connectable=0;strokeColor=inherit;overflow=hidden;fillColor=none;top=0;left=0;bottom=0;right=0;pointerEvents=1;rounded=1;sketch=1;hachureGap=4;jiggle=2;curveFitting=1;fontFamily=Architects Daughter;fontSource=https%3A%2F%2Ffonts.googleapis.com%2Fcss%3Ffamily%3DArchitects%2BDaughter;align=left;fontStyle=1" vertex="1" parent="uwz9AWxOwD2hvtBg_4yy-40">
          <mxGeometry width="403" height="128" as="geometry">
            <mxRectangle width="403" height="128" as="alternateBounds" />
          </mxGeometry>
        </mxCell>
        <mxCell id="uwz9AWxOwD2hvtBg_4yy-42" value="Keywords that states how the following statements within the block are to be treated." style="shape=partialRectangle;html=1;whiteSpace=wrap;connectable=0;strokeColor=inherit;overflow=hidden;fillColor=none;top=0;left=0;bottom=0;right=0;pointerEvents=1;rounded=1;sketch=1;hachureGap=4;jiggle=2;curveFitting=1;fontFamily=Architects Daughter;fontSource=https%3A%2F%2Ffonts.googleapis.com%2Fcss%3Ffamily%3DArchitects%2BDaughter;fontStyle=1;fontSize=24;" vertex="1" parent="uwz9AWxOwD2hvtBg_4yy-40">
          <mxGeometry x="403" width="1037" height="128" as="geometry">
            <mxRectangle width="1037" height="128" as="alternateBounds" />
          </mxGeometry>
        </mxCell>
        <mxCell id="uwz9AWxOwD2hvtBg_4yy-43" value="" style="shape=tableRow;horizontal=0;startSize=0;swimlaneHead=0;swimlaneBody=0;strokeColor=inherit;top=0;left=0;bottom=0;right=0;collapsible=0;dropTarget=0;fillColor=none;points=[[0,0.5],[1,0.5]];portConstraint=eastwest;rounded=1;sketch=1;hachureGap=4;jiggle=2;curveFitting=1;fontFamily=Architects Daughter;fontSource=https%3A%2F%2Ffonts.googleapis.com%2Fcss%3Ffamily%3DArchitects%2BDaughter;" vertex="1" parent="uwz9AWxOwD2hvtBg_4yy-36">
          <mxGeometry y="329" width="1440" height="134" as="geometry" />
        </mxCell>
        <mxCell id="uwz9AWxOwD2hvtBg_4yy-44" value="{&lt;div&gt;&lt;span style=&quot;white-space: pre;&quot;&gt;&#x9;&lt;/span&gt;....&lt;/div&gt;&lt;div&gt;}&lt;/div&gt;" style="shape=partialRectangle;html=1;whiteSpace=wrap;connectable=0;strokeColor=inherit;overflow=hidden;fillColor=none;top=0;left=0;bottom=0;right=0;pointerEvents=1;rounded=1;sketch=1;hachureGap=4;jiggle=2;curveFitting=1;fontFamily=Architects Daughter;fontSource=https%3A%2F%2Ffonts.googleapis.com%2Fcss%3Ffamily%3DArchitects%2BDaughter;align=left;fontSize=24;fontStyle=1" vertex="1" parent="uwz9AWxOwD2hvtBg_4yy-43">
          <mxGeometry width="403" height="134" as="geometry">
            <mxRectangle width="403" height="134" as="alternateBounds" />
          </mxGeometry>
        </mxCell>
        <mxCell id="uwz9AWxOwD2hvtBg_4yy-45" value="Block of statements that are part of the &lt;u&gt;Keyword&lt;/u&gt;, signifying a dedicated section." style="shape=partialRectangle;html=1;whiteSpace=wrap;connectable=0;strokeColor=inherit;overflow=hidden;fillColor=none;top=0;left=0;bottom=0;right=0;pointerEvents=1;rounded=1;sketch=1;hachureGap=4;jiggle=2;curveFitting=1;fontFamily=Architects Daughter;fontSource=https%3A%2F%2Ffonts.googleapis.com%2Fcss%3Ffamily%3DArchitects%2BDaughter;fontStyle=1;fontSize=24;" vertex="1" parent="uwz9AWxOwD2hvtBg_4yy-43">
          <mxGeometry x="403" width="1037" height="134" as="geometry">
            <mxRectangle width="1037" height="134" as="alternateBounds" />
          </mxGeometry>
        </mxCell>
        <mxCell id="uwz9AWxOwD2hvtBg_4yy-46" value="" style="shape=tableRow;horizontal=0;startSize=0;swimlaneHead=0;swimlaneBody=0;strokeColor=inherit;top=0;left=0;bottom=0;right=0;collapsible=0;dropTarget=0;fillColor=none;points=[[0,0.5],[1,0.5]];portConstraint=eastwest;rounded=1;sketch=1;hachureGap=4;jiggle=2;curveFitting=1;fontFamily=Architects Daughter;fontSource=https%3A%2F%2Ffonts.googleapis.com%2Fcss%3Ffamily%3DArchitects%2BDaughter;" vertex="1" parent="uwz9AWxOwD2hvtBg_4yy-36">
          <mxGeometry y="463" width="1440" height="128" as="geometry" />
        </mxCell>
        <mxCell id="uwz9AWxOwD2hvtBg_4yy-47" value="GAME_ASSET_PATHING" style="shape=partialRectangle;html=1;whiteSpace=wrap;connectable=0;strokeColor=inherit;overflow=hidden;fillColor=none;top=0;left=0;bottom=0;right=0;pointerEvents=1;rounded=1;sketch=1;hachureGap=4;jiggle=2;curveFitting=1;fontFamily=Architects Daughter;fontSource=https%3A%2F%2Ffonts.googleapis.com%2Fcss%3Ffamily%3DArchitects%2BDaughter;align=left;fontStyle=1;fontSize=24;" vertex="1" parent="uwz9AWxOwD2hvtBg_4yy-46">
          <mxGeometry width="403" height="128" as="geometry">
            <mxRectangle width="403" height="128" as="alternateBounds" />
          </mxGeometry>
        </mxCell>
        <mxCell id="uwz9AWxOwD2hvtBg_4yy-48" value="&lt;span&gt;&lt;font style=&quot;font-size: 24px;&quot;&gt;A Keyword that signifies that the following statements within the Block are Game Assets, that will contain two arguments per-line (using quotes) and a comma to separate the arguments:&lt;/font&gt;&lt;/span&gt;&lt;div&gt;&lt;span&gt;&lt;font style=&quot;font-size: 24px;&quot;&gt;&quot;%DESTINATION_DIRECTORY%&quot;, &quot;%SOURCE_PATH%&quot;&lt;/font&gt;&lt;/span&gt;&lt;/div&gt;" style="shape=partialRectangle;html=1;whiteSpace=wrap;connectable=0;strokeColor=inherit;overflow=hidden;fillColor=none;top=0;left=0;bottom=0;right=0;pointerEvents=1;rounded=1;sketch=1;hachureGap=4;jiggle=2;curveFitting=1;fontFamily=Architects Daughter;fontSource=https%3A%2F%2Ffonts.googleapis.com%2Fcss%3Ffamily%3DArchitects%2BDaughter;fontStyle=1" vertex="1" parent="uwz9AWxOwD2hvtBg_4yy-46">
          <mxGeometry x="403" width="1037" height="128" as="geometry">
            <mxRectangle width="1037" height="128" as="alternateBounds" />
          </mxGeometry>
        </mxCell>
        <mxCell id="uwz9AWxOwD2hvtBg_4yy-49" value="" style="shape=tableRow;horizontal=0;startSize=0;swimlaneHead=0;swimlaneBody=0;strokeColor=inherit;top=0;left=0;bottom=0;right=0;collapsible=0;dropTarget=0;fillColor=none;points=[[0,0.5],[1,0.5]];portConstraint=eastwest;rounded=1;sketch=1;hachureGap=4;jiggle=2;curveFitting=1;fontFamily=Architects Daughter;fontSource=https%3A%2F%2Ffonts.googleapis.com%2Fcss%3Ffamily%3DArchitects%2BDaughter;" vertex="1" parent="uwz9AWxOwD2hvtBg_4yy-36">
          <mxGeometry y="591" width="1440" height="129" as="geometry" />
        </mxCell>
        <mxCell id="uwz9AWxOwD2hvtBg_4yy-50" value="ACC_COMPILE_EXEC" style="shape=partialRectangle;html=1;whiteSpace=wrap;connectable=0;strokeColor=inherit;overflow=hidden;fillColor=none;top=0;left=0;bottom=0;right=0;pointerEvents=1;rounded=1;sketch=1;hachureGap=4;jiggle=2;curveFitting=1;fontFamily=Architects Daughter;fontSource=https%3A%2F%2Ffonts.googleapis.com%2Fcss%3Ffamily%3DArchitects%2BDaughter;align=left;fontStyle=1;fontSize=24;" vertex="1" parent="uwz9AWxOwD2hvtBg_4yy-49">
          <mxGeometry width="403" height="129" as="geometry">
            <mxRectangle width="403" height="129" as="alternateBounds" />
          </mxGeometry>
        </mxCell>
        <mxCell id="uwz9AWxOwD2hvtBg_4yy-51" value="A keyword that signifies that the following commands will be executed with the appropriate ACC compiler executable.&lt;div&gt;&amp;lt;&amp;lt;&amp;lt;&amp;nbsp; FEATURE FOR LATER; NOT READY&amp;nbsp; &amp;gt;&amp;gt;&amp;gt;&lt;/div&gt;" style="shape=partialRectangle;html=1;whiteSpace=wrap;connectable=0;strokeColor=inherit;overflow=hidden;fillColor=none;top=0;left=0;bottom=0;right=0;pointerEvents=1;rounded=1;sketch=1;hachureGap=4;jiggle=2;curveFitting=1;fontFamily=Architects Daughter;fontSource=https%3A%2F%2Ffonts.googleapis.com%2Fcss%3Ffamily%3DArchitects%2BDaughter;fontStyle=1;fontSize=24;" vertex="1" parent="uwz9AWxOwD2hvtBg_4yy-49">
          <mxGeometry x="403" width="1037" height="129" as="geometry">
            <mxRectangle width="1037" height="129" as="alternateBounds" />
          </mxGeometry>
        </mxCell>
        <mxCell id="18VjboyddKtIW048viAq-17" value="Check if&lt;div&gt;List is Populated&lt;/div&gt;" style="edgeStyle=orthogonalEdgeStyle;rounded=0;sketch=1;hachureGap=4;jiggle=2;curveFitting=1;orthogonalLoop=1;jettySize=auto;html=1;entryX=0.5;entryY=0;entryDx=0;entryDy=0;fontFamily=Architects Daughter;fontSource=https%3A%2F%2Ffonts.googleapis.com%2Fcss%3Ffamily%3DArchitects%2BDaughter;fontSize=24;fontStyle=1" edge="1" parent="uwz9AWxOwD2hvtBg_4yy-1" source="18VjboyddKtIW048viAq-1" target="18VjboyddKtIW048viAq-16">
          <mxGeometry relative="1" as="geometry" />
        </mxCell>
        <mxCell id="18VjboyddKtIW048viAq-1" value="Remove Comments and Whitespace from List" style="rounded=0;whiteSpace=wrap;html=1;sketch=1;hachureGap=4;jiggle=2;curveFitting=1;fontFamily=Architects Daughter;fontSource=https%3A%2F%2Ffonts.googleapis.com%2Fcss%3Ffamily%3DArchitects%2BDaughter;fontSize=24;fontStyle=1;fillColor=#ffe6cc;strokeColor=#d79b00;" vertex="1" parent="uwz9AWxOwD2hvtBg_4yy-1">
          <mxGeometry x="242" y="228" width="367" height="175" as="geometry" />
        </mxCell>
        <mxCell id="18VjboyddKtIW048viAq-6" value="Remove String" style="edgeStyle=orthogonalEdgeStyle;rounded=0;sketch=1;hachureGap=4;jiggle=2;curveFitting=1;orthogonalLoop=1;jettySize=auto;html=1;entryX=0.5;entryY=0;entryDx=0;entryDy=0;fontFamily=Architects Daughter;fontSource=https%3A%2F%2Ffonts.googleapis.com%2Fcss%3Ffamily%3DArchitects%2BDaughter;fontSize=24;fontStyle=1" edge="1" parent="uwz9AWxOwD2hvtBg_4yy-1" source="18VjboyddKtIW048viAq-3" target="18VjboyddKtIW048viAq-5">
          <mxGeometry relative="1" as="geometry" />
        </mxCell>
        <mxCell id="18VjboyddKtIW048viAq-8" value="Keep String" style="edgeStyle=orthogonalEdgeStyle;rounded=0;sketch=1;hachureGap=4;jiggle=2;curveFitting=1;orthogonalLoop=1;jettySize=auto;html=1;entryX=1;entryY=0.5;entryDx=0;entryDy=0;fontFamily=Architects Daughter;fontSource=https%3A%2F%2Ffonts.googleapis.com%2Fcss%3Ffamily%3DArchitects%2BDaughter;fontSize=24;" edge="1" parent="uwz9AWxOwD2hvtBg_4yy-1" source="18VjboyddKtIW048viAq-3" target="18VjboyddKtIW048viAq-7">
          <mxGeometry relative="1" as="geometry" />
        </mxCell>
        <mxCell id="18VjboyddKtIW048viAq-3" value="String is Empty&lt;div&gt;OR&lt;/div&gt;&lt;div&gt;Comment&lt;/div&gt;" style="rhombus;whiteSpace=wrap;html=1;sketch=1;hachureGap=4;jiggle=2;curveFitting=1;fontFamily=Architects Daughter;fontSource=https%3A%2F%2Ffonts.googleapis.com%2Fcss%3Ffamily%3DArchitects%2BDaughter;fontSize=24;fontStyle=1;fillColor=#e1d5e7;strokeColor=#9673a6;" vertex="1" parent="uwz9AWxOwD2hvtBg_4yy-1">
          <mxGeometry x="-312" y="182" width="288" height="267" as="geometry" />
        </mxCell>
        <mxCell id="18VjboyddKtIW048viAq-4" value="Clean-Up List" style="shape=flexArrow;endArrow=classic;startArrow=classic;html=1;rounded=0;sketch=1;hachureGap=4;jiggle=2;curveFitting=1;fontFamily=Architects Daughter;fontSource=https%3A%2F%2Ffonts.googleapis.com%2Fcss%3Ffamily%3DArchitects%2BDaughter;entryX=0;entryY=0.5;entryDx=0;entryDy=0;fontSize=24;fontStyle=1;exitX=1;exitY=0.5;exitDx=0;exitDy=0;dashed=1;" edge="1" parent="uwz9AWxOwD2hvtBg_4yy-1" source="18VjboyddKtIW048viAq-3" target="18VjboyddKtIW048viAq-1">
          <mxGeometry x="0.0286" y="28" width="100" height="100" relative="1" as="geometry">
            <mxPoint x="-36" y="312" as="sourcePoint" />
            <mxPoint x="112" y="468" as="targetPoint" />
            <mxPoint y="1" as="offset" />
          </mxGeometry>
        </mxCell>
        <mxCell id="18VjboyddKtIW048viAq-9" value="Move to Next String&lt;div&gt;from the List&lt;/div&gt;" style="edgeStyle=orthogonalEdgeStyle;rounded=0;sketch=1;hachureGap=4;jiggle=2;curveFitting=1;orthogonalLoop=1;jettySize=auto;html=1;entryX=0.5;entryY=1;entryDx=0;entryDy=0;fontFamily=Architects Daughter;fontSource=https%3A%2F%2Ffonts.googleapis.com%2Fcss%3Ffamily%3DArchitects%2BDaughter;fontSize=24;fontStyle=1" edge="1" parent="uwz9AWxOwD2hvtBg_4yy-1" source="18VjboyddKtIW048viAq-5" target="18VjboyddKtIW048viAq-7">
          <mxGeometry relative="1" as="geometry" />
        </mxCell>
        <mxCell id="18VjboyddKtIW048viAq-5" value="Remove the String&lt;div&gt;from the List&lt;/div&gt;" style="rounded=0;whiteSpace=wrap;html=1;sketch=1;hachureGap=4;jiggle=2;curveFitting=1;fontFamily=Architects Daughter;fontSource=https%3A%2F%2Ffonts.googleapis.com%2Fcss%3Ffamily%3DArchitects%2BDaughter;fontSize=24;fontStyle=1;fillColor=#dae8fc;strokeColor=#6c8ebf;" vertex="1" parent="uwz9AWxOwD2hvtBg_4yy-1">
          <mxGeometry x="-288" y="588" width="240" height="132" as="geometry" />
        </mxCell>
        <mxCell id="18VjboyddKtIW048viAq-13" value="Is there&lt;div&gt;More Strings&lt;/div&gt;" style="edgeStyle=orthogonalEdgeStyle;rounded=0;sketch=1;hachureGap=4;jiggle=2;curveFitting=1;orthogonalLoop=1;jettySize=auto;html=1;entryX=0;entryY=0.5;entryDx=0;entryDy=0;fontFamily=Architects Daughter;fontSource=https%3A%2F%2Ffonts.googleapis.com%2Fcss%3Ffamily%3DArchitects%2BDaughter;exitX=0.5;exitY=0;exitDx=0;exitDy=0;fontSize=24;fontStyle=1" edge="1" parent="uwz9AWxOwD2hvtBg_4yy-1" source="18VjboyddKtIW048viAq-7" target="18VjboyddKtIW048viAq-10">
          <mxGeometry relative="1" as="geometry" />
        </mxCell>
        <mxCell id="18VjboyddKtIW048viAq-7" value="Move to Next String&lt;div&gt;in the List&lt;/div&gt;" style="rounded=0;whiteSpace=wrap;html=1;sketch=1;hachureGap=4;jiggle=2;curveFitting=1;fontFamily=Architects Daughter;fontSource=https%3A%2F%2Ffonts.googleapis.com%2Fcss%3Ffamily%3DArchitects%2BDaughter;fontSize=24;fontStyle=1;fillColor=#d5e8d4;strokeColor=#82b366;" vertex="1" parent="uwz9AWxOwD2hvtBg_4yy-1">
          <mxGeometry x="-816" y="258.5" width="264" height="114" as="geometry" />
        </mxCell>
        <mxCell id="18VjboyddKtIW048viAq-14" value="Check String" style="edgeStyle=orthogonalEdgeStyle;rounded=0;sketch=1;hachureGap=4;jiggle=2;curveFitting=1;orthogonalLoop=1;jettySize=auto;html=1;fontFamily=Architects Daughter;fontSource=https%3A%2F%2Ffonts.googleapis.com%2Fcss%3Ffamily%3DArchitects%2BDaughter;fontSize=24;fontStyle=1" edge="1" parent="uwz9AWxOwD2hvtBg_4yy-1" source="18VjboyddKtIW048viAq-10" target="18VjboyddKtIW048viAq-3">
          <mxGeometry relative="1" as="geometry" />
        </mxCell>
        <mxCell id="18VjboyddKtIW048viAq-15" value="Done" style="edgeStyle=orthogonalEdgeStyle;rounded=0;sketch=1;hachureGap=4;jiggle=2;curveFitting=1;orthogonalLoop=1;jettySize=auto;html=1;entryX=0;entryY=0;entryDx=0;entryDy=0;fontFamily=Architects Daughter;fontSource=https%3A%2F%2Ffonts.googleapis.com%2Fcss%3Ffamily%3DArchitects%2BDaughter;fontSize=24;fontStyle=1" edge="1" parent="uwz9AWxOwD2hvtBg_4yy-1" source="18VjboyddKtIW048viAq-10" target="18VjboyddKtIW048viAq-1">
          <mxGeometry relative="1" as="geometry" />
        </mxCell>
        <mxCell id="18VjboyddKtIW048viAq-10" value="End of Strings&lt;div&gt;in the List&lt;/div&gt;" style="rhombus;whiteSpace=wrap;html=1;sketch=1;hachureGap=4;jiggle=2;curveFitting=1;fontFamily=Architects Daughter;fontSource=https%3A%2F%2Ffonts.googleapis.com%2Fcss%3Ffamily%3DArchitects%2BDaughter;fillColor=#fa6800;fontColor=#FFFFFF;strokeColor=#C73500;fontSize=24;fontStyle=1" vertex="1" parent="uwz9AWxOwD2hvtBg_4yy-1">
          <mxGeometry x="-528" width="228" height="176" as="geometry" />
        </mxCell>
        <mxCell id="18VjboyddKtIW048viAq-19" value="Nothing&amp;nbsp;&lt;span style=&quot;background-color: light-dark(#ffffff, var(--ge-dark-color, #121212)); color: light-dark(rgb(0, 0, 0), rgb(255, 255, 255));&quot;&gt;to-do&lt;/span&gt;" style="edgeStyle=orthogonalEdgeStyle;rounded=0;sketch=1;hachureGap=4;jiggle=2;curveFitting=1;orthogonalLoop=1;jettySize=auto;html=1;entryX=1;entryY=0.5;entryDx=0;entryDy=0;fontFamily=Architects Daughter;fontSource=https%3A%2F%2Ffonts.googleapis.com%2Fcss%3Ffamily%3DArchitects%2BDaughter;fontSize=24;fontStyle=1" edge="1" parent="uwz9AWxOwD2hvtBg_4yy-1" source="18VjboyddKtIW048viAq-16" target="18VjboyddKtIW048viAq-18">
          <mxGeometry x="0.0254" y="-24" relative="1" as="geometry">
            <mxPoint as="offset" />
          </mxGeometry>
        </mxCell>
        <mxCell id="h-Bx6RORHtIicRDJD-Lx-1" value="Keyword Trigger #1" style="edgeStyle=orthogonalEdgeStyle;rounded=0;sketch=1;hachureGap=4;jiggle=2;curveFitting=1;orthogonalLoop=1;jettySize=auto;html=1;entryX=0.5;entryY=0;entryDx=0;entryDy=0;fontFamily=Architects Daughter;fontSource=https%3A%2F%2Ffonts.googleapis.com%2Fcss%3Ffamily%3DArchitects%2BDaughter;fontSize=24;fontStyle=1" edge="1" parent="uwz9AWxOwD2hvtBg_4yy-1" source="18VjboyddKtIW048viAq-16" target="h-Bx6RORHtIicRDJD-Lx-2">
          <mxGeometry relative="1" as="geometry">
            <mxPoint x="425.5" y="924" as="targetPoint" />
          </mxGeometry>
        </mxCell>
        <mxCell id="18VjboyddKtIW048viAq-16" value="List is Empty" style="rhombus;whiteSpace=wrap;html=1;sketch=1;hachureGap=4;jiggle=2;curveFitting=1;fontFamily=Architects Daughter;fontSource=https%3A%2F%2Ffonts.googleapis.com%2Fcss%3Ffamily%3DArchitects%2BDaughter;fontSize=24;fontStyle=1;fillColor=#a0522d;fontColor=#ffffff;strokeColor=#6D1F00;" vertex="1" parent="uwz9AWxOwD2hvtBg_4yy-1">
          <mxGeometry x="317" y="567.5" width="216" height="209" as="geometry" />
        </mxCell>
        <mxCell id="18VjboyddKtIW048viAq-18" value="Stop 11" style="ellipse;whiteSpace=wrap;html=1;sketch=1;hachureGap=4;jiggle=2;curveFitting=1;fontFamily=Architects Daughter;fontSource=https%3A%2F%2Ffonts.googleapis.com%2Fcss%3Ffamily%3DArchitects%2BDaughter;fillColor=#e51400;fontColor=#ffffff;strokeColor=#B20000;fontSize=24;fontStyle=1" vertex="1" parent="uwz9AWxOwD2hvtBg_4yy-1">
          <mxGeometry y="632" width="120" height="80" as="geometry" />
        </mxCell>
        <mxCell id="k6ximUIyNyxu54n-SrKt-5" value="Access the&lt;div&gt;GAME_ASSET_PATHING&lt;/div&gt;" style="edgeStyle=orthogonalEdgeStyle;rounded=0;sketch=1;hachureGap=4;jiggle=2;curveFitting=1;orthogonalLoop=1;jettySize=auto;html=1;entryX=1;entryY=0.5;entryDx=0;entryDy=0;fontFamily=Architects Daughter;fontSource=https%3A%2F%2Ffonts.googleapis.com%2Fcss%3Ffamily%3DArchitects%2BDaughter;fontSize=24;fontStyle=1" edge="1" parent="uwz9AWxOwD2hvtBg_4yy-1" source="h-Bx6RORHtIicRDJD-Lx-2" target="k6ximUIyNyxu54n-SrKt-3">
          <mxGeometry x="-0.0244" y="-54" relative="1" as="geometry">
            <mxPoint as="offset" />
          </mxGeometry>
        </mxCell>
        <mxCell id="h-Bx6RORHtIicRDJD-Lx-2" value="&lt;div&gt;&lt;span style=&quot;background-color: transparent; color: light-dark(rgb(0, 0, 0), rgb(255, 255, 255));&quot;&gt;GAME_ASSET_PATHING&lt;/span&gt;&lt;/div&gt;" style="rhombus;whiteSpace=wrap;html=1;sketch=1;hachureGap=4;jiggle=2;curveFitting=1;fontFamily=Architects Daughter;fontSource=https%3A%2F%2Ffonts.googleapis.com%2Fcss%3Ffamily%3DArchitects%2BDaughter;fontSize=24;fontStyle=1;fillColor=#647687;fontColor=#ffffff;strokeColor=#314354;" vertex="1" parent="uwz9AWxOwD2hvtBg_4yy-1">
          <mxGeometry x="268" y="924" width="313" height="276" as="geometry" />
        </mxCell>
        <mxCell id="k6ximUIyNyxu54n-SrKt-6" value="Access the&lt;div&gt;ACC_COMPILE_EXEC&lt;/div&gt;" style="edgeStyle=orthogonalEdgeStyle;rounded=0;sketch=1;hachureGap=4;jiggle=2;curveFitting=1;orthogonalLoop=1;jettySize=auto;html=1;entryX=1;entryY=0.5;entryDx=0;entryDy=0;fontFamily=Architects Daughter;fontSource=https%3A%2F%2Ffonts.googleapis.com%2Fcss%3Ffamily%3DArchitects%2BDaughter;fontSize=24;fontStyle=1" edge="1" parent="uwz9AWxOwD2hvtBg_4yy-1" source="h-Bx6RORHtIicRDJD-Lx-3" target="k6ximUIyNyxu54n-SrKt-4">
          <mxGeometry x="0.0282" y="-37" relative="1" as="geometry">
            <mxPoint as="offset" />
          </mxGeometry>
        </mxCell>
        <mxCell id="h-Bx6RORHtIicRDJD-Lx-3" value="&lt;div&gt;&lt;span style=&quot;background-color: transparent; color: light-dark(rgb(0, 0, 0), rgb(255, 255, 255));&quot;&gt;ACC_COMPILE_EXEC&lt;/span&gt;&lt;/div&gt;" style="rhombus;whiteSpace=wrap;html=1;sketch=1;hachureGap=4;jiggle=2;curveFitting=1;fontFamily=Architects Daughter;fontSource=https%3A%2F%2Ffonts.googleapis.com%2Fcss%3Ffamily%3DArchitects%2BDaughter;fontSize=24;fontStyle=1;fillColor=#647687;fontColor=#ffffff;strokeColor=#314354;" vertex="1" parent="uwz9AWxOwD2hvtBg_4yy-1">
          <mxGeometry x="269" y="1404" width="313" height="276" as="geometry" />
        </mxCell>
        <mxCell id="h-Bx6RORHtIicRDJD-Lx-4" value="Keyword Trigger #2" style="edgeStyle=orthogonalEdgeStyle;rounded=0;sketch=1;hachureGap=4;jiggle=2;curveFitting=1;orthogonalLoop=1;jettySize=auto;html=1;entryX=0.49;entryY=0.01;entryDx=0;entryDy=0;entryPerimeter=0;fontFamily=Architects Daughter;fontSource=https%3A%2F%2Ffonts.googleapis.com%2Fcss%3Ffamily%3DArchitects%2BDaughter;fontSize=24;fontStyle=1" edge="1" parent="uwz9AWxOwD2hvtBg_4yy-1" source="h-Bx6RORHtIicRDJD-Lx-2" target="h-Bx6RORHtIicRDJD-Lx-3">
          <mxGeometry relative="1" as="geometry" />
        </mxCell>
        <mxCell id="k6ximUIyNyxu54n-SrKt-11" style="edgeStyle=orthogonalEdgeStyle;rounded=0;sketch=1;hachureGap=4;jiggle=2;curveFitting=1;orthogonalLoop=1;jettySize=auto;html=1;fontFamily=Architects Daughter;fontSource=https%3A%2F%2Ffonts.googleapis.com%2Fcss%3Ffamily%3DArchitects%2BDaughter;exitX=0.5;exitY=1;exitDx=0;exitDy=0;entryX=1.01;entryY=0.518;entryDx=0;entryDy=0;entryPerimeter=0;fontStyle=1;fontSize=24;" edge="1" parent="uwz9AWxOwD2hvtBg_4yy-1" source="k6ximUIyNyxu54n-SrKt-3" target="k6ximUIyNyxu54n-SrKt-7">
          <mxGeometry relative="1" as="geometry">
            <mxPoint x="-516" y="1236" as="targetPoint" />
          </mxGeometry>
        </mxCell>
        <UserObject label="&lt;div&gt;Jump to&lt;/div&gt;GAME_ASSET_PATHING" link="data:page/id,R-Ao5CD5V4uMdrSHApRT" id="k6ximUIyNyxu54n-SrKt-3">
          <mxCell style="shape=offPageConnector;whiteSpace=wrap;html=1;sketch=1;hachureGap=4;jiggle=2;curveFitting=1;fontFamily=Architects Daughter;fontSource=https%3A%2F%2Ffonts.googleapis.com%2Fcss%3Ffamily%3DArchitects%2BDaughter;fontSize=24;fontStyle=1;fillColor=#76608a;fontColor=#ffffff;strokeColor=#432D57;" vertex="1" parent="uwz9AWxOwD2hvtBg_4yy-1">
            <mxGeometry x="-360" y="928.75" width="300" height="266.5" as="geometry" />
          </mxCell>
        </UserObject>
        <mxCell id="k6ximUIyNyxu54n-SrKt-10" value="Next String" style="edgeStyle=orthogonalEdgeStyle;rounded=0;sketch=1;hachureGap=4;jiggle=2;curveFitting=1;orthogonalLoop=1;jettySize=auto;html=1;entryX=1;entryY=0.5;entryDx=0;entryDy=0;fontFamily=Architects Daughter;fontSource=https%3A%2F%2Ffonts.googleapis.com%2Fcss%3Ffamily%3DArchitects%2BDaughter;exitX=0.5;exitY=0;exitDx=0;exitDy=0;fontSize=24;fontStyle=1" edge="1" parent="uwz9AWxOwD2hvtBg_4yy-1" source="k6ximUIyNyxu54n-SrKt-4" target="k6ximUIyNyxu54n-SrKt-7">
          <mxGeometry relative="1" as="geometry" />
        </mxCell>
        <UserObject label="Jump to&lt;div&gt;ACC_COMPILE_EXEC&lt;/div&gt;" link="data:page/id,ieJNzlYDVU1RSUqqlQ8Z" id="k6ximUIyNyxu54n-SrKt-4">
          <mxCell style="shape=offPageConnector;whiteSpace=wrap;html=1;sketch=1;hachureGap=4;jiggle=2;curveFitting=1;fontFamily=Architects Daughter;fontSource=https%3A%2F%2Ffonts.googleapis.com%2Fcss%3Ffamily%3DArchitects%2BDaughter;fontSize=24;fontStyle=1;fillColor=#a0522d;fontColor=#ffffff;strokeColor=#6D1F00;" vertex="1" parent="uwz9AWxOwD2hvtBg_4yy-1">
            <mxGeometry x="-372" y="1404" width="300" height="266.5" as="geometry" />
          </mxCell>
        </UserObject>
        <mxCell id="k6ximUIyNyxu54n-SrKt-14" value="Any Strings&lt;div&gt;Available&lt;/div&gt;" style="edgeStyle=orthogonalEdgeStyle;rounded=0;sketch=1;hachureGap=4;jiggle=2;curveFitting=1;orthogonalLoop=1;jettySize=auto;html=1;entryX=1;entryY=0.5;entryDx=0;entryDy=0;fontFamily=Architects Daughter;fontSource=https%3A%2F%2Ffonts.googleapis.com%2Fcss%3Ffamily%3DArchitects%2BDaughter;fontStyle=1;fontSize=24;" edge="1" parent="uwz9AWxOwD2hvtBg_4yy-1" source="k6ximUIyNyxu54n-SrKt-7" target="k6ximUIyNyxu54n-SrKt-13">
          <mxGeometry x="0.0435" y="-36" relative="1" as="geometry">
            <mxPoint as="offset" />
          </mxGeometry>
        </mxCell>
        <mxCell id="k6ximUIyNyxu54n-SrKt-7" value="Jump to Next String&lt;div&gt;in the List&lt;/div&gt;" style="rounded=0;whiteSpace=wrap;html=1;sketch=1;hachureGap=4;jiggle=2;curveFitting=1;fontFamily=Architects Daughter;fontSource=https%3A%2F%2Ffonts.googleapis.com%2Fcss%3Ffamily%3DArchitects%2BDaughter;fontSize=24;fontStyle=1;fillColor=#dae8fc;strokeColor=#6c8ebf;" vertex="1" parent="uwz9AWxOwD2hvtBg_4yy-1">
          <mxGeometry x="-840" y="1188" width="264" height="144" as="geometry" />
        </mxCell>
        <mxCell id="k6ximUIyNyxu54n-SrKt-16" value="Recheck for More Keywords" style="edgeStyle=orthogonalEdgeStyle;rounded=0;sketch=1;hachureGap=4;jiggle=2;curveFitting=1;orthogonalLoop=1;jettySize=auto;html=1;entryX=0.5;entryY=0;entryDx=0;entryDy=0;fontFamily=Architects Daughter;fontSource=https%3A%2F%2Ffonts.googleapis.com%2Fcss%3Ffamily%3DArchitects%2BDaughter;exitX=0.5;exitY=0;exitDx=0;exitDy=0;fontSize=24;fontStyle=1" edge="1" parent="uwz9AWxOwD2hvtBg_4yy-1" source="k6ximUIyNyxu54n-SrKt-13" target="h-Bx6RORHtIicRDJD-Lx-2">
          <mxGeometry relative="1" as="geometry">
            <Array as="points">
              <mxPoint x="-1266" y="876" />
              <mxPoint x="425" y="876" />
            </Array>
          </mxGeometry>
        </mxCell>
        <mxCell id="k6ximUIyNyxu54n-SrKt-22" value="Finished" style="edgeStyle=orthogonalEdgeStyle;rounded=0;sketch=1;hachureGap=4;jiggle=2;curveFitting=1;orthogonalLoop=1;jettySize=auto;html=1;entryX=0.5;entryY=0;entryDx=0;entryDy=0;fontFamily=Architects Daughter;fontSource=https%3A%2F%2Ffonts.googleapis.com%2Fcss%3Ffamily%3DArchitects%2BDaughter;fontStyle=1;fontSize=24;" edge="1" parent="uwz9AWxOwD2hvtBg_4yy-1" source="k6ximUIyNyxu54n-SrKt-13" target="k6ximUIyNyxu54n-SrKt-21">
          <mxGeometry relative="1" as="geometry" />
        </mxCell>
        <mxCell id="k6ximUIyNyxu54n-SrKt-13" value="End of Strings&lt;div&gt;from the List&lt;/div&gt;" style="rhombus;whiteSpace=wrap;html=1;sketch=1;hachureGap=4;jiggle=2;curveFitting=1;fontFamily=Architects Daughter;fontSource=https%3A%2F%2Ffonts.googleapis.com%2Fcss%3Ffamily%3DArchitects%2BDaughter;fontSize=24;fontStyle=1;fillColor=#ffe6cc;strokeColor=#d79b00;" vertex="1" parent="uwz9AWxOwD2hvtBg_4yy-1">
          <mxGeometry x="-1416" y="1122" width="300" height="276" as="geometry" />
        </mxCell>
        <mxCell id="k6ximUIyNyxu54n-SrKt-21" value="Done" style="ellipse;whiteSpace=wrap;html=1;sketch=1;hachureGap=4;jiggle=2;curveFitting=1;fontFamily=Architects Daughter;fontSource=https%3A%2F%2Ffonts.googleapis.com%2Fcss%3Ffamily%3DArchitects%2BDaughter;fillColor=#008a00;fontColor=#ffffff;strokeColor=#005700;fontSize=24;fontStyle=1" vertex="1" parent="uwz9AWxOwD2hvtBg_4yy-1">
          <mxGeometry x="-1392" y="1512" width="252" height="150" as="geometry" />
        </mxCell>
      </root>
    </mxGraphModel>
  </diagram>
  <diagram id="R-Ao5CD5V4uMdrSHApRT" name="Flow Chart - GAME_ASSET_PATHING">
    <mxGraphModel dx="5750" dy="1935" grid="1" gridSize="10" guides="1" tooltips="1" connect="1" arrows="1" fold="1" page="1" pageScale="1" pageWidth="850" pageHeight="1100" math="0" shadow="0">
      <root>
        <mxCell id="0" />
        <mxCell id="1" parent="0" />
        <mxCell id="JGQypKniH5TDl4oeyufq-2" value="Only Run-Once Check" style="edgeStyle=orthogonalEdgeStyle;rounded=0;sketch=1;hachureGap=4;jiggle=2;curveFitting=1;orthogonalLoop=1;jettySize=auto;html=1;entryX=0.5;entryY=0;entryDx=0;entryDy=0;fontFamily=Architects Daughter;fontSource=https%3A%2F%2Ffonts.googleapis.com%2Fcss%3Ffamily%3DArchitects%2BDaughter;fontSize=24;fontStyle=1" edge="1" parent="1" source="Qf7yVNQfsu4au-3RE73d-1" target="gZWOiXWU6G3DmNXwcHdg-1">
          <mxGeometry relative="1" as="geometry" />
        </mxCell>
        <UserObject label="Flow Chart&lt;div&gt;GAME_ASSET_PATHING&lt;/div&gt;" link="data:page/id,5bkYqV-rwIhNKgItnjpC" id="Qf7yVNQfsu4au-3RE73d-1">
          <mxCell style="ellipse;whiteSpace=wrap;html=1;sketch=1;hachureGap=4;jiggle=2;curveFitting=1;fontFamily=Architects Daughter;fontSource=https%3A%2F%2Ffonts.googleapis.com%2Fcss%3Ffamily%3DArchitects%2BDaughter;fontSize=24;fontStyle=0;fillColor=#76608a;strokeColor=#432D57;fontColor=#ffffff;" vertex="1" parent="1">
            <mxGeometry x="280" width="290" height="130" as="geometry" />
          </mxCell>
        </UserObject>
        <mxCell id="1oxVrw0t1x7URMH18e_p-2" value="Multiple Entries Detected" style="edgeStyle=orthogonalEdgeStyle;rounded=0;sketch=1;hachureGap=4;jiggle=2;curveFitting=1;orthogonalLoop=1;jettySize=auto;html=1;entryX=1;entryY=0.5;entryDx=0;entryDy=0;fontFamily=Architects Daughter;fontSource=https%3A%2F%2Ffonts.googleapis.com%2Fcss%3Ffamily%3DArchitects%2BDaughter;fontSize=24;fontStyle=1" edge="1" parent="1" source="gZWOiXWU6G3DmNXwcHdg-1" target="1oxVrw0t1x7URMH18e_p-1">
          <mxGeometry x="-0.0053" y="-25" relative="1" as="geometry">
            <mxPoint as="offset" />
          </mxGeometry>
        </mxCell>
        <mxCell id="1oxVrw0t1x7URMH18e_p-4" value="Raise Flag&lt;div&gt;Do not Run-Again&lt;/div&gt;" style="edgeStyle=orthogonalEdgeStyle;rounded=0;sketch=1;hachureGap=4;jiggle=2;curveFitting=1;orthogonalLoop=1;jettySize=auto;html=1;entryX=0.5;entryY=0;entryDx=0;entryDy=0;fontFamily=Architects Daughter;fontSource=https%3A%2F%2Ffonts.googleapis.com%2Fcss%3Ffamily%3DArchitects%2BDaughter;fontSize=24;fontStyle=1" edge="1" parent="1" source="gZWOiXWU6G3DmNXwcHdg-1" target="1oxVrw0t1x7URMH18e_p-3">
          <mxGeometry relative="1" as="geometry" />
        </mxCell>
        <mxCell id="gZWOiXWU6G3DmNXwcHdg-1" value="&lt;div&gt;&lt;br&gt;&lt;/div&gt;Entered Function&lt;div&gt;Only Once&lt;/div&gt;" style="rhombus;whiteSpace=wrap;html=1;sketch=1;hachureGap=4;jiggle=2;curveFitting=1;fontFamily=Architects Daughter;fontSource=https%3A%2F%2Ffonts.googleapis.com%2Fcss%3Ffamily%3DArchitects%2BDaughter;fontSize=24;fontStyle=1;fillColor=#6d8764;fontColor=#ffffff;strokeColor=#3A5431;" vertex="1" parent="1">
          <mxGeometry x="298" y="280" width="255" height="230" as="geometry" />
        </mxCell>
        <mxCell id="JGQypKniH5TDl4oeyufq-1" value="&lt;div&gt;&lt;span style=&quot;background-color: transparent; color: light-dark(rgb(0, 0, 0), rgb(255, 255, 255));&quot;&gt;# This is a comment!&lt;/span&gt;&lt;/div&gt;&lt;div&gt;&lt;span style=&quot;background-color: transparent; color: light-dark(rgb(0, 0, 0), rgb(255, 255, 255));&quot;&gt;# This block will contain where the files will be stored within the PK3 file.&lt;/span&gt;&lt;br&gt;&lt;/div&gt;&lt;div&gt;GAME_ASSET_PATHING&lt;/div&gt;&lt;div&gt;{&lt;/div&gt;&lt;div&gt;&amp;nbsp; &amp;nbsp; # Script Lump Files&lt;/div&gt;&lt;div&gt;&amp;nbsp; &amp;nbsp; &quot;Root&quot;, &quot;%PROJDIR%/MapInfo/*.txt&quot;&lt;/div&gt;&lt;div&gt;&lt;br&gt;&lt;/div&gt;&lt;div&gt;&amp;nbsp; &amp;nbsp; # TGRDM3 Texture Set - Pointing to a collection of files.&lt;/div&gt;&lt;div&gt;&amp;nbsp; &amp;nbsp; &quot;Textures&quot;, &quot;%PROJDIR%/Textures/TGRDM3/Textures/*.*&quot;&lt;/div&gt;&lt;div&gt;&lt;br&gt;&lt;/div&gt;&lt;div&gt;&amp;nbsp; &amp;nbsp; # Alphecca Map - Pointing to a collection of files.&lt;/div&gt;&lt;div&gt;&amp;nbsp; &amp;nbsp; &quot;Maps&quot;, &quot;%PROJDIR%/Maps/Episode_1/*.*&quot;&lt;/div&gt;&lt;div&gt;&lt;br&gt;&lt;/div&gt;&lt;div&gt;&amp;nbsp; &amp;nbsp; # The Tiger Voxel - Pointing to a specific file.&lt;/div&gt;&lt;div&gt;&amp;nbsp; &amp;nbsp; &quot;Voxel&quot;, &quot;%PROJDIR%/Voxel/Tiger/*.*&quot;&lt;/div&gt;&lt;div&gt;} #GAME_ASSET_PATHING&lt;/div&gt;&lt;div&gt;&lt;br&gt;&lt;/div&gt;&lt;div&gt;&lt;br&gt;&lt;/div&gt;" style="shape=note;whiteSpace=wrap;html=1;backgroundOutline=1;darkOpacity=0.05;rounded=1;sketch=1;hachureGap=4;jiggle=2;curveFitting=1;fontFamily=Architects Daughter;fontSource=https%3A%2F%2Ffonts.googleapis.com%2Fcss%3Ffamily%3DArchitects%2BDaughter;align=left;verticalAlign=top;fontSize=24;fontStyle=1" vertex="1" parent="1">
          <mxGeometry x="850" y="40" width="840" height="490" as="geometry" />
        </mxCell>
        <mxCell id="1oxVrw0t1x7URMH18e_p-1" value="Stop 9" style="ellipse;whiteSpace=wrap;html=1;sketch=1;hachureGap=4;jiggle=2;curveFitting=1;fontFamily=Architects Daughter;fontSource=https%3A%2F%2Ffonts.googleapis.com%2Fcss%3Ffamily%3DArchitects%2BDaughter;fillColor=#e51400;fontColor=#ffffff;strokeColor=#B20000;fontSize=24;fontStyle=1" vertex="1" parent="1">
          <mxGeometry x="-150" y="355" width="120" height="80" as="geometry" />
        </mxCell>
        <mxCell id="1oxVrw0t1x7URMH18e_p-6" value="Check for&lt;div&gt;Keyword Block&lt;/div&gt;" style="edgeStyle=orthogonalEdgeStyle;rounded=0;sketch=1;hachureGap=4;jiggle=2;curveFitting=1;orthogonalLoop=1;jettySize=auto;html=1;entryX=0.5;entryY=0;entryDx=0;entryDy=0;fontFamily=Architects Daughter;fontSource=https%3A%2F%2Ffonts.googleapis.com%2Fcss%3Ffamily%3DArchitects%2BDaughter;fontSize=24;fontStyle=1" edge="1" parent="1" source="1oxVrw0t1x7URMH18e_p-3" target="1oxVrw0t1x7URMH18e_p-5">
          <mxGeometry relative="1" as="geometry" />
        </mxCell>
        <mxCell id="1oxVrw0t1x7URMH18e_p-3" value="Run-Once Function Static Flag Raised" style="rounded=0;whiteSpace=wrap;html=1;sketch=1;hachureGap=4;jiggle=2;curveFitting=1;fontFamily=Architects Daughter;fontSource=https%3A%2F%2Ffonts.googleapis.com%2Fcss%3Ffamily%3DArchitects%2BDaughter;fontSize=24;fontStyle=1;fillColor=#6d8764;fontColor=#ffffff;strokeColor=#3A5431;" vertex="1" parent="1">
          <mxGeometry x="313" y="650" width="224" height="90" as="geometry" />
        </mxCell>
        <mxCell id="1oxVrw0t1x7URMH18e_p-10" value="Keyword Block Missing" style="edgeStyle=orthogonalEdgeStyle;rounded=0;sketch=1;hachureGap=4;jiggle=2;curveFitting=1;orthogonalLoop=1;jettySize=auto;html=1;entryX=1;entryY=0.5;entryDx=0;entryDy=0;fontFamily=Architects Daughter;fontSource=https%3A%2F%2Ffonts.googleapis.com%2Fcss%3Ffamily%3DArchitects%2BDaughter;fontStyle=1;fontSize=24;" edge="1" parent="1" source="1oxVrw0t1x7URMH18e_p-5" target="1oxVrw0t1x7URMH18e_p-9">
          <mxGeometry x="-0.0163" y="-25" relative="1" as="geometry">
            <mxPoint as="offset" />
          </mxGeometry>
        </mxCell>
        <mxCell id="1oxVrw0t1x7URMH18e_p-12" value="Consume Next String" style="edgeStyle=orthogonalEdgeStyle;rounded=0;sketch=1;hachureGap=4;jiggle=2;curveFitting=1;orthogonalLoop=1;jettySize=auto;html=1;entryX=0.5;entryY=0;entryDx=0;entryDy=0;fontFamily=Architects Daughter;fontSource=https%3A%2F%2Ffonts.googleapis.com%2Fcss%3Ffamily%3DArchitects%2BDaughter;fontStyle=1;fontSize=24;" edge="1" parent="1" source="1oxVrw0t1x7URMH18e_p-5" target="1oxVrw0t1x7URMH18e_p-11">
          <mxGeometry relative="1" as="geometry" />
        </mxCell>
        <mxCell id="1oxVrw0t1x7URMH18e_p-5" value="Keyword&lt;div&gt;and&lt;/div&gt;&lt;div&gt;&#39;{&#39;&lt;/div&gt;&lt;div&gt;Found&lt;/div&gt;" style="rhombus;whiteSpace=wrap;html=1;sketch=1;hachureGap=4;jiggle=2;curveFitting=1;fontFamily=Architects Daughter;fontSource=https%3A%2F%2Ffonts.googleapis.com%2Fcss%3Ffamily%3DArchitects%2BDaughter;fontSize=24;fontStyle=1;fillColor=#647687;fontColor=#ffffff;strokeColor=#314354;" vertex="1" parent="1">
          <mxGeometry x="295.5" y="880" width="260" height="230" as="geometry" />
        </mxCell>
        <mxCell id="1oxVrw0t1x7URMH18e_p-7" value="str[0] == &quot;GAME_ASSET_PATHING&quot;&lt;div&gt;str[1] == &quot;{&quot;&lt;/div&gt;" style="rounded=1;whiteSpace=wrap;html=1;sketch=1;hachureGap=4;jiggle=2;curveFitting=1;fontFamily=Architects Daughter;fontSource=https%3A%2F%2Ffonts.googleapis.com%2Fcss%3Ffamily%3DArchitects%2BDaughter;fontSize=24;fontStyle=1;align=left;" vertex="1" parent="1">
          <mxGeometry x="-210" y="760" width="420" height="90" as="geometry" />
        </mxCell>
        <mxCell id="1oxVrw0t1x7URMH18e_p-8" value="" style="endArrow=classic;startArrow=classic;html=1;rounded=0;sketch=1;hachureGap=4;jiggle=2;curveFitting=1;fontFamily=Architects Daughter;fontSource=https%3A%2F%2Ffonts.googleapis.com%2Fcss%3Ffamily%3DArchitects%2BDaughter;entryX=0;entryY=0;entryDx=0;entryDy=0;exitX=1;exitY=0.5;exitDx=0;exitDy=0;dashed=1;" edge="1" parent="1" source="1oxVrw0t1x7URMH18e_p-7" target="1oxVrw0t1x7URMH18e_p-5">
          <mxGeometry width="50" height="50" relative="1" as="geometry">
            <mxPoint x="210" y="830" as="sourcePoint" />
            <mxPoint x="260" y="780" as="targetPoint" />
          </mxGeometry>
        </mxCell>
        <mxCell id="1oxVrw0t1x7URMH18e_p-9" value="Stop 9" style="ellipse;whiteSpace=wrap;html=1;sketch=1;hachureGap=4;jiggle=2;curveFitting=1;fontFamily=Architects Daughter;fontSource=https%3A%2F%2Ffonts.googleapis.com%2Fcss%3Ffamily%3DArchitects%2BDaughter;fillColor=#e51400;fontColor=#ffffff;strokeColor=#B20000;fontSize=24;fontStyle=1" vertex="1" parent="1">
          <mxGeometry x="-100" y="955" width="120" height="80" as="geometry" />
        </mxCell>
        <mxCell id="1oxVrw0t1x7URMH18e_p-15" value="Reached End of List" style="edgeStyle=orthogonalEdgeStyle;rounded=0;sketch=1;hachureGap=4;jiggle=2;curveFitting=1;orthogonalLoop=1;jettySize=auto;html=1;entryX=0.5;entryY=0;entryDx=0;entryDy=0;fontFamily=Architects Daughter;fontSource=https%3A%2F%2Ffonts.googleapis.com%2Fcss%3Ffamily%3DArchitects%2BDaughter;fontSize=24;fontStyle=1" edge="1" parent="1" source="1oxVrw0t1x7URMH18e_p-11" target="1oxVrw0t1x7URMH18e_p-14">
          <mxGeometry relative="1" as="geometry" />
        </mxCell>
        <mxCell id="1oxVrw0t1x7URMH18e_p-11" value="Jump to Next Line&lt;div&gt;in the List&lt;/div&gt;" style="rounded=0;whiteSpace=wrap;html=1;sketch=1;hachureGap=4;jiggle=2;curveFitting=1;fontFamily=Architects Daughter;fontSource=https%3A%2F%2Ffonts.googleapis.com%2Fcss%3Ffamily%3DArchitects%2BDaughter;fontStyle=1;fontSize=24;fillColor=#fff2cc;strokeColor=#d6b656;" vertex="1" parent="1">
          <mxGeometry x="303" y="1230" width="244" height="100" as="geometry" />
        </mxCell>
        <mxCell id="1oxVrw0t1x7URMH18e_p-17" value="Incomplete Block" style="edgeStyle=orthogonalEdgeStyle;rounded=0;sketch=1;hachureGap=4;jiggle=2;curveFitting=1;orthogonalLoop=1;jettySize=auto;html=1;entryX=1;entryY=0.5;entryDx=0;entryDy=0;fontFamily=Architects Daughter;fontSource=https%3A%2F%2Ffonts.googleapis.com%2Fcss%3Ffamily%3DArchitects%2BDaughter;fontStyle=1;fontSize=24;" edge="1" parent="1" source="1oxVrw0t1x7URMH18e_p-14" target="1oxVrw0t1x7URMH18e_p-16">
          <mxGeometry x="-0.0628" y="-20" relative="1" as="geometry">
            <mxPoint as="offset" />
          </mxGeometry>
        </mxCell>
        <mxCell id="1oxVrw0t1x7URMH18e_p-19" value="Reached End of Block" style="edgeStyle=orthogonalEdgeStyle;rounded=0;sketch=1;hachureGap=4;jiggle=2;curveFitting=1;orthogonalLoop=1;jettySize=auto;html=1;entryX=0.5;entryY=0;entryDx=0;entryDy=0;fontFamily=Architects Daughter;fontSource=https%3A%2F%2Ffonts.googleapis.com%2Fcss%3Ffamily%3DArchitects%2BDaughter;fontSize=24;fontStyle=1" edge="1" parent="1" source="1oxVrw0t1x7URMH18e_p-14" target="1oxVrw0t1x7URMH18e_p-18">
          <mxGeometry relative="1" as="geometry" />
        </mxCell>
        <mxCell id="1oxVrw0t1x7URMH18e_p-14" value="End of String&lt;div&gt;from the List&lt;/div&gt;" style="rhombus;whiteSpace=wrap;html=1;sketch=1;hachureGap=4;jiggle=2;curveFitting=1;fontFamily=Architects Daughter;fontSource=https%3A%2F%2Ffonts.googleapis.com%2Fcss%3Ffamily%3DArchitects%2BDaughter;fontSize=24;fontStyle=1;fillColor=#76608a;fontColor=#ffffff;strokeColor=#432D57;" vertex="1" parent="1">
          <mxGeometry x="307" y="1440" width="230" height="220" as="geometry" />
        </mxCell>
        <mxCell id="1oxVrw0t1x7URMH18e_p-16" value="Stop 9" style="ellipse;whiteSpace=wrap;html=1;sketch=1;hachureGap=4;jiggle=2;curveFitting=1;fontFamily=Architects Daughter;fontSource=https%3A%2F%2Ffonts.googleapis.com%2Fcss%3Ffamily%3DArchitects%2BDaughter;fillColor=#e51400;fontColor=#ffffff;strokeColor=#B20000;fontSize=24;fontStyle=1" vertex="1" parent="1">
          <mxGeometry x="-20" y="1510" width="120" height="80" as="geometry" />
        </mxCell>
        <mxCell id="1oxVrw0t1x7URMH18e_p-21" value="Finished Block" style="edgeStyle=orthogonalEdgeStyle;rounded=0;sketch=1;hachureGap=4;jiggle=2;curveFitting=1;orthogonalLoop=1;jettySize=auto;html=1;entryX=1;entryY=0.5;entryDx=0;entryDy=0;fontFamily=Architects Daughter;fontSource=https%3A%2F%2Ffonts.googleapis.com%2Fcss%3Ffamily%3DArchitects%2BDaughter;fontSize=24;fontStyle=1" edge="1" parent="1" source="1oxVrw0t1x7URMH18e_p-18" target="1oxVrw0t1x7URMH18e_p-20">
          <mxGeometry x="-0.0182" y="-20" relative="1" as="geometry">
            <mxPoint as="offset" />
          </mxGeometry>
        </mxCell>
        <mxCell id="1oxVrw0t1x7URMH18e_p-25" value="Split String" style="edgeStyle=orthogonalEdgeStyle;rounded=0;sketch=1;hachureGap=4;jiggle=2;curveFitting=1;orthogonalLoop=1;jettySize=auto;html=1;entryX=0.5;entryY=0;entryDx=0;entryDy=0;fontFamily=Architects Daughter;fontSource=https%3A%2F%2Ffonts.googleapis.com%2Fcss%3Ffamily%3DArchitects%2BDaughter;fontStyle=1;fontSize=24;" edge="1" parent="1" source="1oxVrw0t1x7URMH18e_p-18" target="1oxVrw0t1x7URMH18e_p-24">
          <mxGeometry relative="1" as="geometry" />
        </mxCell>
        <mxCell id="1oxVrw0t1x7URMH18e_p-18" value="Caught &#39;}&#39;" style="rhombus;whiteSpace=wrap;html=1;sketch=1;hachureGap=4;jiggle=2;curveFitting=1;fontFamily=Architects Daughter;fontSource=https%3A%2F%2Ffonts.googleapis.com%2Fcss%3Ffamily%3DArchitects%2BDaughter;fontStyle=1;fontSize=24;fillColor=#e3c800;fontColor=#EDEDED;strokeColor=#B09500;" vertex="1" parent="1">
          <mxGeometry x="312" y="1770" width="220" height="200" as="geometry" />
        </mxCell>
        <mxCell id="1oxVrw0t1x7URMH18e_p-20" value="Done" style="ellipse;whiteSpace=wrap;html=1;sketch=1;hachureGap=4;jiggle=2;curveFitting=1;fontFamily=Architects Daughter;fontSource=https%3A%2F%2Ffonts.googleapis.com%2Fcss%3Ffamily%3DArchitects%2BDaughter;fontStyle=1;fontSize=24;fillColor=#008a00;fontColor=#ffffff;strokeColor=#005700;" vertex="1" parent="1">
          <mxGeometry x="-10" y="1830" width="120" height="80" as="geometry" />
        </mxCell>
        <mxCell id="1oxVrw0t1x7URMH18e_p-22" value="str[0] == &#39;}&#39;" style="rounded=1;whiteSpace=wrap;html=1;sketch=1;hachureGap=4;jiggle=2;curveFitting=1;fontFamily=Architects Daughter;fontSource=https%3A%2F%2Ffonts.googleapis.com%2Fcss%3Ffamily%3DArchitects%2BDaughter;fontSize=24;fontStyle=1;align=center;" vertex="1" parent="1">
          <mxGeometry x="650" y="1650" width="170" height="90" as="geometry" />
        </mxCell>
        <mxCell id="1oxVrw0t1x7URMH18e_p-23" value="" style="endArrow=classic;startArrow=classic;html=1;rounded=0;sketch=1;hachureGap=4;jiggle=2;curveFitting=1;fontFamily=Architects Daughter;fontSource=https%3A%2F%2Ffonts.googleapis.com%2Fcss%3Ffamily%3DArchitects%2BDaughter;entryX=0;entryY=0.75;entryDx=0;entryDy=0;exitX=1;exitY=0;exitDx=0;exitDy=0;dashed=1;" edge="1" parent="1" source="1oxVrw0t1x7URMH18e_p-18" target="1oxVrw0t1x7URMH18e_p-22">
          <mxGeometry width="50" height="50" relative="1" as="geometry">
            <mxPoint x="520" y="1830" as="sourcePoint" />
            <mxPoint x="570" y="1780" as="targetPoint" />
          </mxGeometry>
        </mxCell>
        <mxCell id="1oxVrw0t1x7URMH18e_p-27" value="Two Strings&lt;div&gt;Collected&lt;/div&gt;" style="edgeStyle=orthogonalEdgeStyle;rounded=0;sketch=1;hachureGap=4;jiggle=2;curveFitting=1;orthogonalLoop=1;jettySize=auto;html=1;entryX=0.5;entryY=0;entryDx=0;entryDy=0;fontFamily=Architects Daughter;fontSource=https%3A%2F%2Ffonts.googleapis.com%2Fcss%3Ffamily%3DArchitects%2BDaughter;fontStyle=1;fontSize=24;" edge="1" parent="1" source="1oxVrw0t1x7URMH18e_p-24" target="1oxVrw0t1x7URMH18e_p-26">
          <mxGeometry relative="1" as="geometry" />
        </mxCell>
        <mxCell id="1oxVrw0t1x7URMH18e_p-24" value="Split String into Two Strings.&lt;div&gt;Delimiter is &#39;,&#39; char&lt;/div&gt;" style="rounded=0;whiteSpace=wrap;html=1;sketch=1;hachureGap=4;jiggle=2;curveFitting=1;fontFamily=Architects Daughter;fontSource=https%3A%2F%2Ffonts.googleapis.com%2Fcss%3Ffamily%3DArchitects%2BDaughter;fontSize=24;fontStyle=1;fillColor=#d0cee2;strokeColor=#56517e;" vertex="1" parent="1">
          <mxGeometry x="248" y="2060" width="348" height="70" as="geometry" />
        </mxCell>
        <mxCell id="1oxVrw0t1x7URMH18e_p-29" value="Incorrect Formatting" style="edgeStyle=orthogonalEdgeStyle;rounded=0;sketch=1;hachureGap=4;jiggle=2;curveFitting=1;orthogonalLoop=1;jettySize=auto;html=1;entryX=1;entryY=0.5;entryDx=0;entryDy=0;fontFamily=Architects Daughter;fontSource=https%3A%2F%2Ffonts.googleapis.com%2Fcss%3Ffamily%3DArchitects%2BDaughter;fontStyle=1;fontSize=24;" edge="1" parent="1" source="1oxVrw0t1x7URMH18e_p-26" target="1oxVrw0t1x7URMH18e_p-28">
          <mxGeometry x="-0.0145" y="-25" relative="1" as="geometry">
            <mxPoint as="offset" />
          </mxGeometry>
        </mxCell>
        <mxCell id="3-wDYAufqKL_caSz-I3B-2" value="Strings Quoted" style="edgeStyle=orthogonalEdgeStyle;rounded=0;sketch=1;hachureGap=4;jiggle=2;curveFitting=1;orthogonalLoop=1;jettySize=auto;html=1;entryX=0.5;entryY=0;entryDx=0;entryDy=0;fontFamily=Architects Daughter;fontSource=https%3A%2F%2Ffonts.googleapis.com%2Fcss%3Ffamily%3DArchitects%2BDaughter;fontSize=24;fontStyle=1" edge="1" parent="1" source="1oxVrw0t1x7URMH18e_p-26" target="3-wDYAufqKL_caSz-I3B-1">
          <mxGeometry relative="1" as="geometry" />
        </mxCell>
        <mxCell id="1oxVrw0t1x7URMH18e_p-26" value="Two Strings" style="rhombus;whiteSpace=wrap;html=1;sketch=1;hachureGap=4;jiggle=2;curveFitting=1;fontFamily=Architects Daughter;fontSource=https%3A%2F%2Ffonts.googleapis.com%2Fcss%3Ffamily%3DArchitects%2BDaughter;fontSize=24;fontStyle=1;fillColor=#b0e3e6;strokeColor=#0e8088;" vertex="1" parent="1">
          <mxGeometry x="326" y="2240" width="192" height="170" as="geometry" />
        </mxCell>
        <mxCell id="1oxVrw0t1x7URMH18e_p-28" value="Stop 9" style="ellipse;whiteSpace=wrap;html=1;sketch=1;hachureGap=4;jiggle=2;curveFitting=1;fontFamily=Architects Daughter;fontSource=https%3A%2F%2Ffonts.googleapis.com%2Fcss%3Ffamily%3DArchitects%2BDaughter;fillColor=#e51400;fontColor=#ffffff;strokeColor=#B20000;fontSize=24;fontStyle=1" vertex="1" parent="1">
          <mxGeometry x="-70" y="2285" width="120" height="80" as="geometry" />
        </mxCell>
        <mxCell id="1oxVrw0t1x7URMH18e_p-30" value="False" style="text;html=1;align=center;verticalAlign=middle;resizable=0;points=[];autosize=1;strokeColor=none;fillColor=none;fontFamily=Architects Daughter;fontSource=https%3A%2F%2Ffonts.googleapis.com%2Fcss%3Ffamily%3DArchitects%2BDaughter;fontStyle=1;fontSize=24;" vertex="1" parent="1">
          <mxGeometry x="130" y="2340" width="80" height="40" as="geometry" />
        </mxCell>
        <mxCell id="3-wDYAufqKL_caSz-I3B-4" value="Incorrect Formatting" style="edgeStyle=orthogonalEdgeStyle;rounded=0;sketch=1;hachureGap=4;jiggle=2;curveFitting=1;orthogonalLoop=1;jettySize=auto;html=1;entryX=1;entryY=0.5;entryDx=0;entryDy=0;fontFamily=Architects Daughter;fontSource=https%3A%2F%2Ffonts.googleapis.com%2Fcss%3Ffamily%3DArchitects%2BDaughter;fontStyle=1;fontSize=24;" edge="1" parent="1" source="3-wDYAufqKL_caSz-I3B-1" target="3-wDYAufqKL_caSz-I3B-3">
          <mxGeometry x="-0.0108" y="-20" relative="1" as="geometry">
            <mxPoint as="offset" />
          </mxGeometry>
        </mxCell>
        <mxCell id="3-wDYAufqKL_caSz-I3B-8" value="Add Entry&lt;div&gt;into Dictionary&lt;/div&gt;" style="edgeStyle=orthogonalEdgeStyle;rounded=0;sketch=1;hachureGap=4;jiggle=2;curveFitting=1;orthogonalLoop=1;jettySize=auto;html=1;entryX=0.5;entryY=0;entryDx=0;entryDy=0;fontFamily=Architects Daughter;fontSource=https%3A%2F%2Ffonts.googleapis.com%2Fcss%3Ffamily%3DArchitects%2BDaughter;fontStyle=1;fontSize=24;" edge="1" parent="1" source="3-wDYAufqKL_caSz-I3B-1" target="3-wDYAufqKL_caSz-I3B-7">
          <mxGeometry relative="1" as="geometry" />
        </mxCell>
        <mxCell id="3-wDYAufqKL_caSz-I3B-1" value="Both Strings Encapsulated with Quotes" style="rhombus;whiteSpace=wrap;html=1;sketch=1;hachureGap=4;jiggle=2;curveFitting=1;fontFamily=Architects Daughter;fontSource=https%3A%2F%2Ffonts.googleapis.com%2Fcss%3Ffamily%3DArchitects%2BDaughter;fontSize=24;fontStyle=1;fillColor=#fad7ac;strokeColor=#b46504;" vertex="1" parent="1">
          <mxGeometry x="285.5" y="2520" width="270" height="240" as="geometry" />
        </mxCell>
        <mxCell id="3-wDYAufqKL_caSz-I3B-3" value="Stop 9" style="ellipse;whiteSpace=wrap;html=1;sketch=1;hachureGap=4;jiggle=2;curveFitting=1;fontFamily=Architects Daughter;fontSource=https%3A%2F%2Ffonts.googleapis.com%2Fcss%3Ffamily%3DArchitects%2BDaughter;fillColor=#e51400;fontColor=#ffffff;strokeColor=#B20000;fontSize=24;fontStyle=1" vertex="1" parent="1">
          <mxGeometry x="-110" y="2600" width="120" height="80" as="geometry" />
        </mxCell>
        <mxCell id="3-wDYAufqKL_caSz-I3B-5" value="False" style="text;html=1;align=center;verticalAlign=middle;resizable=0;points=[];autosize=1;strokeColor=none;fillColor=none;fontFamily=Architects Daughter;fontSource=https%3A%2F%2Ffonts.googleapis.com%2Fcss%3Ffamily%3DArchitects%2BDaughter;fontStyle=1;fontSize=24;" vertex="1" parent="1">
          <mxGeometry x="110" y="2660" width="80" height="40" as="geometry" />
        </mxCell>
        <mxCell id="3-wDYAufqKL_caSz-I3B-10" value="Create new Key" style="edgeStyle=orthogonalEdgeStyle;rounded=0;sketch=1;hachureGap=4;jiggle=2;curveFitting=1;orthogonalLoop=1;jettySize=auto;html=1;entryX=0;entryY=0.5;entryDx=0;entryDy=0;fontFamily=Architects Daughter;fontSource=https%3A%2F%2Ffonts.googleapis.com%2Fcss%3Ffamily%3DArchitects%2BDaughter;fontStyle=1;fontSize=24;" edge="1" parent="1" source="3-wDYAufqKL_caSz-I3B-7" target="3-wDYAufqKL_caSz-I3B-9">
          <mxGeometry x="-0.0345" y="25" relative="1" as="geometry">
            <mxPoint as="offset" />
          </mxGeometry>
        </mxCell>
        <mxCell id="3-wDYAufqKL_caSz-I3B-12" value="Insert Entry into&lt;div&gt;Key&#39;s List&lt;/div&gt;" style="edgeStyle=orthogonalEdgeStyle;rounded=0;sketch=1;hachureGap=4;jiggle=2;curveFitting=1;orthogonalLoop=1;jettySize=auto;html=1;entryX=0.5;entryY=0;entryDx=0;entryDy=0;fontFamily=Architects Daughter;fontSource=https%3A%2F%2Ffonts.googleapis.com%2Fcss%3Ffamily%3DArchitects%2BDaughter;fontStyle=1;fontSize=24;" edge="1" parent="1" source="3-wDYAufqKL_caSz-I3B-7" target="3-wDYAufqKL_caSz-I3B-11">
          <mxGeometry relative="1" as="geometry" />
        </mxCell>
        <mxCell id="3-wDYAufqKL_caSz-I3B-7" value="Directory is in Dictionary" style="rhombus;whiteSpace=wrap;html=1;sketch=1;hachureGap=4;jiggle=2;curveFitting=1;fontFamily=Architects Daughter;fontSource=https%3A%2F%2Ffonts.googleapis.com%2Fcss%3Ffamily%3DArchitects%2BDaughter;fontSize=24;fillColor=#6d8764;strokeColor=#3A5431;fontColor=#ffffff;" vertex="1" parent="1">
          <mxGeometry x="312" y="2860" width="220" height="210" as="geometry" />
        </mxCell>
        <mxCell id="3-wDYAufqKL_caSz-I3B-13" value="Insert Entry into&lt;div&gt;Key&#39;s List&lt;/div&gt;" style="edgeStyle=orthogonalEdgeStyle;rounded=0;sketch=1;hachureGap=4;jiggle=2;curveFitting=1;orthogonalLoop=1;jettySize=auto;html=1;entryX=1;entryY=0.5;entryDx=0;entryDy=0;fontFamily=Architects Daughter;fontSource=https%3A%2F%2Ffonts.googleapis.com%2Fcss%3Ffamily%3DArchitects%2BDaughter;exitX=0.5;exitY=1;exitDx=0;exitDy=0;fontStyle=1;fontSize=24;" edge="1" parent="1" source="3-wDYAufqKL_caSz-I3B-9" target="3-wDYAufqKL_caSz-I3B-11">
          <mxGeometry relative="1" as="geometry" />
        </mxCell>
        <mxCell id="3-wDYAufqKL_caSz-I3B-9" value="Create new Key in Dictionary&lt;div&gt;str[0]&lt;/div&gt;" style="rounded=0;whiteSpace=wrap;html=1;sketch=1;hachureGap=4;jiggle=2;curveFitting=1;fontFamily=Architects Daughter;fontSource=https%3A%2F%2Ffonts.googleapis.com%2Fcss%3Ffamily%3DArchitects%2BDaughter;fontSize=24;fontStyle=1;fillColor=#dae8fc;strokeColor=#6c8ebf;" vertex="1" parent="1">
          <mxGeometry x="840" y="2916.25" width="190" height="97.5" as="geometry" />
        </mxCell>
        <mxCell id="3-wDYAufqKL_caSz-I3B-14" value="Proceed to&lt;div&gt;Next String&lt;/div&gt;" style="edgeStyle=orthogonalEdgeStyle;rounded=0;sketch=1;hachureGap=4;jiggle=2;curveFitting=1;orthogonalLoop=1;jettySize=auto;html=1;entryX=0;entryY=0.5;entryDx=0;entryDy=0;fontFamily=Architects Daughter;fontSource=https%3A%2F%2Ffonts.googleapis.com%2Fcss%3Ffamily%3DArchitects%2BDaughter;fontSize=24;fontStyle=1;exitX=0;exitY=0.5;exitDx=0;exitDy=0;" edge="1" parent="1" source="3-wDYAufqKL_caSz-I3B-11" target="1oxVrw0t1x7URMH18e_p-11">
          <mxGeometry relative="1" as="geometry">
            <Array as="points">
              <mxPoint x="-200" y="3230" />
              <mxPoint x="-200" y="1280" />
            </Array>
            <mxPoint as="offset" />
          </mxGeometry>
        </mxCell>
        <mxCell id="3-wDYAufqKL_caSz-I3B-11" value="Add new&lt;div&gt;entry into List&lt;div&gt;str[1]&lt;/div&gt;&lt;/div&gt;" style="rounded=0;whiteSpace=wrap;html=1;sketch=1;hachureGap=4;jiggle=2;curveFitting=1;fontFamily=Architects Daughter;fontSource=https%3A%2F%2Ffonts.googleapis.com%2Fcss%3Ffamily%3DArchitects%2BDaughter;fontSize=24;fontStyle=1;fillColor=#f0a30a;strokeColor=#BD7000;fontColor=#FFFFFF;" vertex="1" parent="1">
          <mxGeometry x="309.5" y="3180" width="222" height="100" as="geometry" />
        </mxCell>
      </root>
    </mxGraphModel>
  </diagram>
  <diagram id="ieJNzlYDVU1RSUqqlQ8Z" name="Flow Chart - ACC_COMPILE_EXEC">
    <mxGraphModel dx="2940" dy="1161" grid="1" gridSize="10" guides="1" tooltips="1" connect="1" arrows="1" fold="1" page="1" pageScale="1" pageWidth="850" pageHeight="1100" math="0" shadow="0">
      <root>
        <mxCell id="0" />
        <mxCell id="1" parent="0" />
        <UserObject label="Flow Chart&lt;div&gt;ACC_COMPILE_EXEC&lt;/div&gt;" link="data:page/id,5bkYqV-rwIhNKgItnjpC" id="Zr6a4QN44VD2CWZfHRkm-1">
          <mxCell style="ellipse;whiteSpace=wrap;html=1;sketch=1;hachureGap=4;jiggle=2;curveFitting=1;fontFamily=Architects Daughter;fontSource=https%3A%2F%2Ffonts.googleapis.com%2Fcss%3Ffamily%3DArchitects%2BDaughter;fontStyle=1;fontSize=24;fillColor=#a0522d;fontColor=#ffffff;strokeColor=#6D1F00;" vertex="1" parent="1">
            <mxGeometry x="290" width="270" height="90" as="geometry" />
          </mxCell>
        </UserObject>
        <mxCell id="z2nOUcTuybu7KejvP6d3-2" value="NOT YET READY&lt;div&gt;TO FIGURE THIS ONE OUT&lt;/div&gt;" style="verticalLabelPosition=middle;verticalAlign=middle;html=1;shape=trapezoid;perimeter=trapezoidPerimeter;whiteSpace=wrap;size=0.23;arcSize=10;flipV=1;labelPosition=center;align=center;sketch=1;hachureGap=4;jiggle=2;curveFitting=1;fontFamily=Architects Daughter;fontSource=https%3A%2F%2Ffonts.googleapis.com%2Fcss%3Ffamily%3DArchitects%2BDaughter;fontSize=24;fontStyle=1;fillColor=#e51400;strokeColor=#B20000;fontColor=#ffffff;" vertex="1" parent="1">
          <mxGeometry x="175" y="390" width="500" height="320" as="geometry" />
        </mxCell>
      </root>
    </mxGraphModel>
  </diagram>
</mxfile>
